<svg xmlns="http://www.w3.org/2000/svg" xmlns:xlink="http://www.w3.org/1999/xlink" width="400" height="462" viewBox="177 14 326 374"><metadata><rdf:RDF xmlns:rdf="http://www.w3.org/1999/02/22-rdf-syntax-ns#" xmlns:dc="http://purl.org/dc/elements/1.1/"><rdf:Description><dc:creator>RealFaviconGenerator</dc:creator><dc:source>https://realfavicongenerator.net</dc:source></rdf:Description></rdf:RDF></metadata><title>luxR</title><desc>luxR hex sticker: full-bleed tight crop on the temple obelisk, warm colour-graded, gradient fade behind wordmark.</desc><defs>
    <clipPath id="hclip">
      <polygon points="340,22 495,114 495,288 340,380 185,288 185,114"></polygon>
    </clipPath>
    <linearGradient id="bottomFade" x1="0" y1="0" x2="0" y2="1">
      <stop offset="0%" stop-color="#2A1410" stop-opacity="0"></stop>
      <stop offset="100%" stop-color="#2A1410" stop-opacity="0.55"></stop>
    </linearGradient>
    <linearGradient id="warmWash" x1="0" y1="0" x2="0" y2="1">
      <stop offset="0%" stop-color="#8B3A2E" stop-opacity="0.06"></stop>
      <stop offset="100%" stop-color="#8B3A2E" stop-opacity="0.22"></stop>
    </linearGradient>

    <style>
      .st0 {
        fill: none;
      }

      .st1 {
        fill: #99469f;
        opacity: .39;
      }

      .st1, .st2, .st3, .st4, .st5, .st6, .st7, .st8, .st9, .st10, .st11, .st12, .st13, .st14, .st15, .st16, .st17, .st18, .st19, .st20, .st21, .st22, .st23, .st24, .st25, .st26 {
        mix-blend-mode: multiply;
      }

      .st2, .st3, .st4, .st5 {
        fill: #ff83ac;
      }

      .st2, .st27 {
        opacity: .34;
      }

      .st3 {
        opacity: .59;
      }

      .st4 {
        opacity: .29;
      }

      .st5 {
        opacity: .26;
      }

      .st6 {
        opacity: .45;
      }

      .st6, .st7 {
        fill: #b91c80;
      }

      .st7, .st12 {
        opacity: .46;
      }

      .st28 {
        fill: url(#_Г‚ГЃ_ГЏ_ГЊГЊ_Г€_Г‹Г‚ГЊГљ_598);
      }

      .st29 {
        fill: url(#_Г‚ГЃ_ГЏ_ГЊГЊ_Г€_Г‹Г‚ГЊГљ_595);
      }

      .st30 {
        fill: url(#_Г‚ГЃ_ГЏ_ГЊГЊ_Г€_Г‹Г‚ГЊГљ_597);
      }

      .st31 {
        fill: url(#_Г‚ГЃ_ГЏ_ГЊГЊ_Г€_Г‹Г‚ГЊГљ_599);
      }

      .st32 {
        fill: url(#_Г‚ГЃ_ГЏ_ГЊГЊ_Г€_Г‹Г‚ГЊГљ_596);
      }

      .st33 {
        fill: url(#_Г‚ГЃ_ГЏ_ГЊГЊ_Г€_Г‹Г‚ГЊГљ_591);
      }

      .st34 {
        fill: url(#_Г‚ГЃ_ГЏ_ГЊГЊ_Г€_Г‹Г‚ГЊГљ_592);
      }

      .st35 {
        fill: url(#_Г‚ГЃ_ГЏ_ГЊГЊ_Г€_Г‹Г‚ГЊГљ_593);
      }

      .st36 {
        fill: url(#_Г‚ГЃ_ГЏ_ГЊГЊ_Г€_Г‹Г‚ГЊГљ_594);
      }

      .st37 {
        fill: url(#_Г‚ГЃ_ГЏ_ГЊГЊ_Г€_Г‹Г‚ГЊГљ_182);
      }

      .st38 {
        fill: url(#_Г‚ГЃ_ГЏ_ГЊГЊ_Г€_Г‹Г‚ГЊГљ_181);
      }

      .st39 {
        fill: url(#_Г‚ГЃ_ГЏ_ГЊГЊ_Г€_Г‹Г‚ГЊГљ_184);
      }

      .st40 {
        fill: url(#_Г‚ГЃ_ГЏ_ГЊГЊ_Г€_Г‹Г‚ГЊГљ_186);
      }

      .st41 {
        fill: url(#_Г‚ГЃ_ГЏ_ГЊГЊ_Г€_Г‹Г‚ГЊГљ_185);
      }

      .st42 {
        fill: url(#_Г‚ГЃ_ГЏ_ГЊГЊ_Г€_Г‹Г‚ГЊГљ_183);
      }

      .st43 {
        fill: url(#_Г‚ГЃ_ГЏ_ГЊГЊ_Г€_Г‹Г‚ГЊГљ_187);
      }

      .st44 {
        fill: url(#_Г‚ГЃ_ГЏ_ГЊГЊ_Г€_Г‹Г‚ГЊГљ_189);
      }

      .st45 {
        fill: url(#_Г‚ГЃ_ГЏ_ГЊГЊ_Г€_Г‹Г‚ГЊГљ_188);
      }

      .st46 {
        fill: url(#_Г‚ГЃ_ГЏ_ГЊГЊ_Г€_Г‹Г‚ГЊГљ_128);
      }

      .st47 {
        fill: url(#_Г‚ГЃ_ГЏ_ГЊГЊ_Г€_Г‹Г‚ГЊГљ_311);
      }

      .st48 {
        fill: url(#_Г‚ГЃ_ГЏ_ГЊГЊ_Г€_Г‹Г‚ГЊГљ_313);
      }

      .st49 {
        fill: url(#_Г‚ГЃ_ГЏ_ГЊГЊ_Г€_Г‹Г‚ГЊГљ_312);
      }

      .st50 {
        fill: url(#_Г‚ГЃ_ГЏ_ГЊГЊ_Г€_Г‹Г‚ГЊГљ_301);
      }

      .st51 {
        fill: url(#_Г‚ГЃ_ГЏ_ГЊГЊ_Г€_Г‹Г‚ГЊГљ_302);
      }

      .st52 {
        fill: url(#_Г‚ГЃ_ГЏ_ГЊГЊ_Г€_Г‹Г‚ГЊГљ_303);
      }

      .st53 {
        fill: url(#_Г‚ГЃ_ГЏ_ГЊГЊ_Г€_Г‹Г‚ГЊГљ_304);
      }

      .st54 {
        fill: url(#_Г‚ГЃ_ГЏ_ГЊГЊ_Г€_Г‹Г‚ГЊГљ_305);
      }

      .st55 {
        fill: url(#_Г‚ГЃ_ГЏ_ГЊГЊ_Г€_Г‹Г‚ГЊГљ_306);
      }

      .st56 {
        fill: url(#_Г‚ГЃ_ГЏ_ГЊГЊ_Г€_Г‹Г‚ГЊГљ_307);
      }

      .st57 {
        fill: url(#_Г‚ГЃ_ГЏ_ГЊГЊ_Г€_Г‹Г‚ГЊГљ_308);
      }

      .st58 {
        fill: url(#_Г‚ГЃ_ГЏ_ГЊГЊ_Г€_Г‹Г‚ГЊГљ_309);
      }

      .st8 {
        fill: #b85f8c;
        opacity: .89;
      }

      .st9, .st21 {
        opacity: .6;
      }

      .st9, .st26 {
        fill: #c27da0;
      }

      .st10 {
        fill: #ffa7ac;
        opacity: .66;
      }

      .st59 {
        opacity: .32;
      }

      .st59, .st60, .st61 {
        fill: #9bff78;
      }

      .st59, .st60, .st61, .st62, .st27, .st63, .st64 {
        mix-blend-mode: color-dodge;
      }

      .st60, .st62, .st63 {
        opacity: .31;
      }

      .st61, .st64 {
        opacity: .17;
      }

      .st65 {
        fill: url(#_Г‚ГЃ_ГЏ_ГЊГЊ_Г€_Г‹Г‚ГЊГљ_6);
      }

      .st66 {
        fill: url(#_Г‚ГЃ_ГЏ_ГЊГЊ_Г€_Г‹Г‚ГЊГљ_5);
      }

      .st67 {
        isolation: isolate;
      }

      .st11 {
        fill: #c33790;
        opacity: .81;
      }

      .st12 {
        fill: #9d3293;
      }

      .st68 {
        fill: #db545e;
      }

      .st68, .st16, .st24 {
        opacity: .33;
      }

      .st68, .st69, .st70 {
        mix-blend-mode: screen;
      }

      .st71 {
        fill: #b04343;
      }

      .st13, .st14 {
        fill: #c36170;
      }

      .st13, .st69 {
        opacity: .54;
      }

      .st14 {
        opacity: .53;
      }

      .st15, .st16 {
        fill: #b04461;
      }

      .st15, .st25 {
        opacity: .14;
      }

      .st17 {
        opacity: .19;
      }

      .st17, .st18, .st19 {
        fill: #96296c;
      }

      .st18 {
        opacity: .12;
      }

      .st19 {
        opacity: .28;
      }

      .st20 {
        fill: #b18db3;
        opacity: .3;
      }

      .st69, .st70 {
        fill: #f8e8c0;
      }

      .st70 {
        opacity: .24;
      }

      .st62, .st27 {
        fill: #80d27c;
      }

      .st72 {
        fill: url(#_Г‚ГЃ_ГЏ_ГЊГЊ_Г€_Г‹Г‚ГЊГљ_5911);
      }

      .st73 {
        fill: url(#_Г‚ГЃ_ГЏ_ГЊГЊ_Г€_Г‹Г‚ГЊГљ_5910);
      }

      .st74 {
        fill: url(#_Г‚ГЃ_ГЏ_ГЊГЊ_Г€_Г‹Г‚ГЊГљ_1810);
      }

      .st75 {
        fill: url(#_Г‚ГЃ_ГЏ_ГЊГЊ_Г€_Г‹Г‚ГЊГљ_3010);
      }

      .st63, .st64 {
        fill: #a7ff88;
      }

      .st21, .st22, .st23, .st24, .st25 {
        fill: #9d3250;
      }

      .st22 {
        opacity: .21;
      }

      .st23 {
        opacity: .18;
      }

      .st76 {
        clip-path: url(#clippath);
      }

      .st77 {
        fill: url(#_Г‚ГЃ_ГЏ_ГЊГЊ_Г€_Г‹Г‚ГЊГљ_63);
      }

      .st78 {
        fill: url(#_Г‚ГЃ_ГЏ_ГЊГЊ_Г€_Г‹Г‚ГЊГљ_62);
      }

      .st79 {
        fill: url(#_Г‚ГЃ_ГЏ_ГЊГЊ_Г€_Г‹Г‚ГЊГљ_61);
      }

      .st80 {
        fill: url(#_Г‚ГЃ_ГЏ_ГЊГЊ_Г€_Г‹Г‚ГЊГљ_64);
      }

      .st81 {
        fill: url(#_Г‚ГЃ_ГЏ_ГЊГЊ_Г€_Г‹Г‚ГЊГљ_30);
      }

      .st82 {
        fill: url(#_Г‚ГЃ_ГЏ_ГЊГЊ_Г€_Г‹Г‚ГЊГљ_31);
      }

      .st83 {
        fill: url(#_Г‚ГЃ_ГЏ_ГЊГЊ_Г€_Г‹Г‚ГЊГљ_65);
      }

      .st84 {
        fill: url(#_Г‚ГЃ_ГЏ_ГЊГЊ_Г€_Г‹Г‚ГЊГљ_66);
      }

      .st85 {
        fill: url(#_Г‚ГЃ_ГЏ_ГЊГЊ_Г€_Г‹Г‚ГЊГљ_19);
      }

      .st86 {
        fill: url(#_Г‚ГЃ_ГЏ_ГЊГЊ_Г€_Г‹Г‚ГЊГљ_18);
      }

      .st87 {
        fill: url(#_Г‚ГЃ_ГЏ_ГЊГЊ_Г€_Г‹Г‚ГЊГљ_59);
      }

      .st88 {
        fill: #a53a43;
      }
    </style>
    <clipPath id="clippath">
      <rect class="st0" x="276.74" y="4" width="557" height="292"></rect>
    </clipPath>
    <linearGradient id="_Г‚ГЃ_ГЏ_ГЊГЊ_Г€_Г‹Г‚ГЊГљ_19" data-name="ВЎГ‚ГЃЛљГЏЛ‡ГЊГЊЛљГ€ вЂћпЈївЂЎвЂ°Г‹Г‚ГЊГљ 19" x1="578.99" y1="222.13" x2="578.99" y2=".77" gradientUnits="userSpaceOnUse">
      <stop offset="0" stop-color="#ffffb3"></stop>
      <stop offset=".34" stop-color="#ede4fc"></stop>
      <stop offset="1" stop-color="#7797fa"></stop>
    </linearGradient>
    <linearGradient id="_Г‚ГЃ_ГЏ_ГЊГЊ_Г€_Г‹Г‚ГЊГљ_128" data-name="ВЎГ‚ГЃЛљГЏЛ‡ГЊГЊЛљГ€ вЂћпЈївЂЎвЂ°Г‹Г‚ГЊГљ 128" x1="574.3" y1="311.01" x2="569.19" y2="235.43" gradientUnits="userSpaceOnUse">
      <stop offset="0" stop-color="#ffa02e"></stop>
      <stop offset="1" stop-color="#ffcb6f"></stop>
    </linearGradient>
    <linearGradient id="_Г‚ГЃ_ГЏ_ГЊГЊ_Г€_Г‹Г‚ГЊГљ_5" data-name="ВЎГ‚ГЃЛљГЏЛ‡ГЊГЊЛљГ€ вЂћпЈївЂЎвЂ°Г‹Г‚ГЊГљ 5" x1="567.33" y1="307.87" x2="564.78" y2="252.73" gradientUnits="userSpaceOnUse">
      <stop offset="0" stop-color="#ff7600"></stop>
      <stop offset="1" stop-color="#ffcb4a"></stop>
    </linearGradient>
    <linearGradient id="_Г‚ГЃ_ГЏ_ГЊГЊ_Г€_Г‹Г‚ГЊГљ_59" data-name="ВЎГ‚ГЃЛљГЏЛ‡ГЊГЊЛљГ€ вЂћпЈївЂЎвЂ°Г‹Г‚ГЊГљ 59" x1="408.85" y1="253.5" x2="381.49" y2="298" gradientTransform="translate(851.14) scale(-1 1)" gradientUnits="userSpaceOnUse">
      <stop offset="0" stop-color="#ffac39"></stop>
      <stop offset=".12" stop-color="#fca539"></stop>
      <stop offset=".29" stop-color="#f4933b"></stop>
      <stop offset=".49" stop-color="#e7753e"></stop>
      <stop offset=".71" stop-color="#d64b42"></stop>
      <stop offset=".95" stop-color="#bf1647"></stop>
      <stop offset="1" stop-color="#ba0949"></stop>
    </linearGradient>
    <linearGradient id="_Г‚ГЃ_ГЏ_ГЊГЊ_Г€_Г‹Г‚ГЊГљ_591" data-name="ВЎГ‚ГЃЛљГЏЛ‡ГЊГЊЛљГ€ вЂћпЈївЂЎвЂ°Г‹Г‚ГЊГљ 59" x1="246.73" y1="248.89" x2="208.96" y2="282.52" xlink:href="#_Г‚ГЃ_ГЏ_ГЊГЊ_Г€_Г‹Г‚ГЊГљ_59"></linearGradient>
    <linearGradient id="_Г‚ГЃ_ГЏ_ГЊГЊ_Г€_Г‹Г‚ГЊГљ_592" data-name="ВЎГ‚ГЃЛљГЏЛ‡ГЊГЊЛљГ€ вЂћпЈївЂЎвЂ°Г‹Г‚ГЊГљ 59" x1="257.26" y1="248.4" x2="234.38" y2="285.61" xlink:href="#_Г‚ГЃ_ГЏ_ГЊГЊ_Г€_Г‹Г‚ГЊГљ_59"></linearGradient>
    <linearGradient id="_Г‚ГЃ_ГЏ_ГЊГЊ_Г€_Г‹Г‚ГЊГљ_593" data-name="ВЎГ‚ГЃЛљГЏЛ‡ГЊГЊЛљГ€ вЂћпЈївЂЎвЂ°Г‹Г‚ГЊГљ 59" x1="265.3" y1="254.89" x2="248.09" y2="282.88" xlink:href="#_Г‚ГЃ_ГЏ_ГЊГЊ_Г€_Г‹Г‚ГЊГљ_59"></linearGradient>
    <linearGradient id="_Г‚ГЃ_ГЏ_ГЊГЊ_Г€_Г‹Г‚ГЊГљ_594" data-name="ВЎГ‚ГЃЛљГЏЛ‡ГЊГЊЛљГ€ вЂћпЈївЂЎвЂ°Г‹Г‚ГЊГљ 59" x1="262.35" y1="265.89" x2="210.64" y2="291.5" xlink:href="#_Г‚ГЃ_ГЏ_ГЊГЊ_Г€_Г‹Г‚ГЊГљ_59"></linearGradient>
    <linearGradient id="_Г‚ГЃ_ГЏ_ГЊГЊ_Г€_Г‹Г‚ГЊГљ_595" data-name="ВЎГ‚ГЃЛљГЏЛ‡ГЊГЊЛљГ€ вЂћпЈївЂЎвЂ°Г‹Г‚ГЊГљ 59" x1="205.91" y1="253.54" x2="164.78" y2="286.52" xlink:href="#_Г‚ГЃ_ГЏ_ГЊГЊ_Г€_Г‹Г‚ГЊГљ_59"></linearGradient>
    <linearGradient id="_Г‚ГЃ_ГЏ_ГЊГЊ_Г€_Г‹Г‚ГЊГљ_18" data-name="ВЎГ‚ГЃЛљГЏЛ‡ГЊГЊЛљГ€ вЂћпЈївЂЎвЂ°Г‹Г‚ГЊГљ 18" x1="823.93" y1="240.84" x2="814.19" y2="300.11" gradientTransform="translate(1353.3298 5.7715) rotate(-179.2666) scale(1 -1)" gradientUnits="userSpaceOnUse">
      <stop offset="0" stop-color="#f5991b"></stop>
      <stop offset=".13" stop-color="#f2921c"></stop>
      <stop offset=".3" stop-color="#e98021"></stop>
      <stop offset=".51" stop-color="#dc6228"></stop>
      <stop offset=".74" stop-color="#c93832"></stop>
      <stop offset=".99" stop-color="#b1033f"></stop>
      <stop offset="1" stop-color="#b00040"></stop>
    </linearGradient>
    <linearGradient id="_Г‚ГЃ_ГЏ_ГЊГЊ_Г€_Г‹Г‚ГЊГљ_181" data-name="ВЎГ‚ГЃЛљГЏЛ‡ГЊГЊЛљГ€ вЂћпЈївЂЎвЂ°Г‹Г‚ГЊГљ 18" x1="498.06" y1="257.62" x2="517.63" y2="312.78" gradientTransform="translate(.23 -11.64) rotate(.73)" xlink:href="#_Г‚ГЃ_ГЏ_ГЊГЊ_Г€_Г‹Г‚ГЊГљ_18"></linearGradient>
    <linearGradient id="_Г‚ГЃ_ГЏ_ГЊГЊ_Г€_Г‹Г‚ГЊГљ_182" data-name="ВЎГ‚ГЃЛљГЏЛ‡ГЊГЊЛљГ€ вЂћпЈївЂЎвЂ°Г‹Г‚ГЊГљ 18" x1="474.48" y1="265.98" x2="494.04" y2="321.14" gradientTransform="translate(.23 -11.64) rotate(.73)" xlink:href="#_Г‚ГЃ_ГЏ_ГЊГЊ_Г€_Г‹Г‚ГЊГљ_18"></linearGradient>
    <linearGradient id="_Г‚ГЃ_ГЏ_ГЊГЊ_Г€_Г‹Г‚ГЊГљ_183" data-name="ВЎГ‚ГЃЛљГЏЛ‡ГЊГЊЛљГ€ вЂћпЈївЂЎвЂ°Г‹Г‚ГЊГљ 18" x1="543.64" y1="267.89" x2="547.61" y2="291.56" gradientTransform="translate(.23 -11.64) rotate(.73)" xlink:href="#_Г‚ГЃ_ГЏ_ГЊГЊ_Г€_Г‹Г‚ГЊГљ_18"></linearGradient>
    <linearGradient id="_Г‚ГЃ_ГЏ_ГЊГЊ_Г€_Г‹Г‚ГЊГљ_184" data-name="ВЎГ‚ГЃЛљГЏЛ‡ГЊГЊЛљГ€ вЂћпЈївЂЎвЂ°Г‹Г‚ГЊГљ 18" x1="560.77" y1="299.59" x2="557.36" y2="285.48" gradientTransform="translate(.23 -11.64) rotate(.73)" xlink:href="#_Г‚ГЃ_ГЏ_ГЊГЊ_Г€_Г‹Г‚ГЊГљ_18"></linearGradient>
    <linearGradient id="_Г‚ГЃ_ГЏ_ГЊГЊ_Г€_Г‹Г‚ГЊГљ_31" data-name="ВЎГ‚ГЃЛљГЏЛ‡ГЊГЊЛљГ€ вЂћпЈївЂЎвЂ°Г‹Г‚ГЊГљ 31" x1="581.66" y1="127.08" x2="580.98" y2="104.41" gradientUnits="userSpaceOnUse">
      <stop offset=".02" stop-color="#e47e34"></stop>
      <stop offset="1" stop-color="#eca366"></stop>
    </linearGradient>
    <linearGradient id="_Г‚ГЃ_ГЏ_ГЊГЊ_Г€_Г‹Г‚ГЊГљ_311" data-name="ВЎГ‚ГЃЛљГЏЛ‡ГЊГЊЛљГ€ вЂћпЈївЂЎвЂ°Г‹Г‚ГЊГљ 31" x1="546.75" y1="232.57" x2="542.6" y2="155.63" xlink:href="#_Г‚ГЃ_ГЏ_ГЊГЊ_Г€_Г‹Г‚ГЊГљ_31"></linearGradient>
    <linearGradient id="_Г‚ГЃ_ГЏ_ГЊГЊ_Г€_Г‹Г‚ГЊГљ_312" data-name="ВЎГ‚ГЃЛљГЏЛ‡ГЊГЊЛљГ€ вЂћпЈївЂЎвЂ°Г‹Г‚ГЊГљ 31" x1="7220.96" y1="127.08" x2="7220.28" y2="104.41" gradientTransform="translate(7867.473) scale(-1 1)" xlink:href="#_Г‚ГЃ_ГЏ_ГЊГЊ_Г€_Г‹Г‚ГЊГљ_31"></linearGradient>
    <linearGradient id="_Г‚ГЃ_ГЏ_ГЊГЊ_Г€_Г‹Г‚ГЊГљ_313" data-name="ВЎГ‚ГЃЛљГЏЛ‡ГЊГЊЛљГ€ вЂћпЈївЂЎвЂ°Г‹Г‚ГЊГљ 31" x1="682.88" y1="225.23" x2="678.74" y2="148.3" xlink:href="#_Г‚ГЃ_ГЏ_ГЊГЊ_Г€_Г‹Г‚ГЊГљ_31"></linearGradient>
    <linearGradient id="_Г‚ГЃ_ГЏ_ГЊГЊ_Г€_Г‹Г‚ГЊГљ_30" data-name="ВЎГ‚ГЃЛљГЏЛ‡ГЊГЊЛљГ€ вЂћпЈївЂЎвЂ°Г‹Г‚ГЊГљ 30" x1="623.07" y1="236.19" x2="621.38" y2="140.39" gradientUnits="userSpaceOnUse">
      <stop offset=".02" stop-color="#f38f45"></stop>
      <stop offset="1" stop-color="#f6b27a"></stop>
    </linearGradient>
    <linearGradient id="_Г‚ГЃ_ГЏ_ГЊГЊ_Г€_Г‹Г‚ГЊГљ_301" data-name="ВЎГ‚ГЃЛљГЏЛ‡ГЊГЊЛљГ€ вЂћпЈївЂЎвЂ°Г‹Г‚ГЊГљ 30" x1="725.32" y1="239.44" x2="727.49" y2="258.04" xlink:href="#_Г‚ГЃ_ГЏ_ГЊГЊ_Г€_Г‹Г‚ГЊГљ_30"></linearGradient>
    <linearGradient id="_Г‚ГЃ_ГЏ_ГЊГЊ_Г€_Г‹Г‚ГЊГљ_302" data-name="ВЎГ‚ГЃЛљГЏЛ‡ГЊГЊЛљГ€ вЂћпЈївЂЎвЂ°Г‹Г‚ГЊГљ 30" x1="725.97" y1="239.27" x2="715.42" y2="121.41" xlink:href="#_Г‚ГЃ_ГЏ_ГЊГЊ_Г€_Г‹Г‚ГЊГљ_30"></linearGradient>
    <linearGradient id="_Г‚ГЃ_ГЏ_ГЊГЊ_Г€_Г‹Г‚ГЊГљ_303" data-name="ВЎГ‚ГЃЛљГЏЛ‡ГЊГЊЛљГ€ вЂћпЈївЂЎвЂ°Г‹Г‚ГЊГљ 30" x1="651.39" y1="228.78" x2="653.08" y2="243.22" xlink:href="#_Г‚ГЃ_ГЏ_ГЊГЊ_Г€_Г‹Г‚ГЊГљ_30"></linearGradient>
    <linearGradient id="_Г‚ГЃ_ГЏ_ГЊГЊ_Г€_Г‹Г‚ГЊГљ_304" data-name="ВЎГ‚ГЃЛљГЏЛ‡ГЊГЊЛљГ€ вЂћпЈївЂЎвЂ°Г‹Г‚ГЊГљ 30" x1="651.9" y1="228.65" x2="643.71" y2="137.14" xlink:href="#_Г‚ГЃ_ГЏ_ГЊГЊ_Г€_Г‹Г‚ГЊГљ_30"></linearGradient>
    <linearGradient id="_Г‚ГЃ_ГЏ_ГЊГЊ_Г€_Г‹Г‚ГЊГљ_305" data-name="ВЎГ‚ГЃЛљГЏЛ‡ГЊГЊЛљГ€ вЂћпЈївЂЎвЂ°Г‹Г‚ГЊГљ 30" x1="4523.41" y1="239.44" x2="4525.59" y2="258.04" gradientTransform="translate(5025.473) scale(-1 1)" xlink:href="#_Г‚ГЃ_ГЏ_ГЊГЊ_Г€_Г‹Г‚ГЊГљ_30"></linearGradient>
    <linearGradient id="_Г‚ГЃ_ГЏ_ГЊГЊ_Г€_Г‹Г‚ГЊГљ_306" data-name="ВЎГ‚ГЃЛљГЏЛ‡ГЊГЊЛљГ€ вЂћпЈївЂЎвЂ°Г‹Г‚ГЊГљ 30" x1="4524.07" y1="239.27" x2="4513.52" y2="121.41" gradientTransform="translate(5025.473) scale(-1 1)" xlink:href="#_Г‚ГЃ_ГЏ_ГЊГЊ_Г€_Г‹Г‚ГЊГљ_30"></linearGradient>
    <linearGradient id="_Г‚ГЃ_ГЏ_ГЊГЊ_Г€_Г‹Г‚ГЊГљ_307" data-name="ВЎГ‚ГЃЛљГЏЛ‡ГЊГЊЛљГ€ вЂћпЈївЂЎвЂ°Г‹Г‚ГЊГљ 30" x1="4450.94" y1="228.53" x2="4452.62" y2="242.92" gradientTransform="translate(5025.473) scale(-1 1)" xlink:href="#_Г‚ГЃ_ГЏ_ГЊГЊ_Г€_Г‹Г‚ГЊГљ_30"></linearGradient>
    <linearGradient id="_Г‚ГЃ_ГЏ_ГЊГЊ_Г€_Г‹Г‚ГЊГљ_308" data-name="ВЎГ‚ГЃЛљГЏЛ‡ГЊГЊЛљГ€ вЂћпЈївЂЎвЂ°Г‹Г‚ГЊГљ 30" x1="4451.45" y1="228.4" x2="4443.29" y2="137.21" gradientTransform="translate(5025.473) scale(-1 1)" xlink:href="#_Г‚ГЃ_ГЏ_ГЊГЊ_Г€_Г‹Г‚ГЊГљ_30"></linearGradient>
    <linearGradient id="_Г‚ГЃ_ГЏ_ГЊГЊ_Г€_Г‹Г‚ГЊГљ_309" data-name="ВЎГ‚ГЃЛљГЏЛ‡ГЊГЊЛљГ€ вЂћпЈївЂЎвЂ°Г‹Г‚ГЊГљ 30" x1="559.81" y1="241.04" x2="552.2" y2="149.78" xlink:href="#_Г‚ГЃ_ГЏ_ГЊГЊ_Г€_Г‹Г‚ГЊГљ_30"></linearGradient>
    <linearGradient id="_Г‚ГЃ_ГЏ_ГЊГЊ_Г€_Г‹Г‚ГЊГљ_185" data-name="ВЎГ‚ГЃЛљГЏЛ‡ГЊГЊЛљГ€ вЂћпЈївЂЎвЂ°Г‹Г‚ГЊГљ 18" x1="767.58" y1="183.71" x2="776.83" y2="255.36" gradientTransform="matrix(1,0,0,1,0,0)" xlink:href="#_Г‚ГЃ_ГЏ_ГЊГЊ_Г€_Г‹Г‚ГЊГљ_18"></linearGradient>
    <linearGradient id="_Г‚ГЃ_ГЏ_ГЊГЊ_Г€_Г‹Г‚ГЊГљ_186" data-name="ВЎГ‚ГЃЛљГЏЛ‡ГЊГЊЛљГ€ вЂћпЈївЂЎвЂ°Г‹Г‚ГЊГљ 18" x1="678.11" y1="258.65" x2="812.95" y2="244.47" gradientTransform="matrix(1,0,0,1,0,0)" xlink:href="#_Г‚ГЃ_ГЏ_ГЊГЊ_Г€_Г‹Г‚ГЊГљ_18"></linearGradient>
    <linearGradient id="_Г‚ГЃ_ГЏ_ГЊГЊ_Г€_Г‹Г‚ГЊГљ_187" data-name="ВЎГ‚ГЃЛљГЏЛ‡ГЊГЊЛљГ€ вЂћпЈївЂЎвЂ°Г‹Г‚ГЊГљ 18" x1="729.6" y1="205.09" x2="750.67" y2="278.31" gradientTransform="matrix(1,0,0,1,0,0)" xlink:href="#_Г‚ГЃ_ГЏ_ГЊГЊ_Г€_Г‹Г‚ГЊГљ_18"></linearGradient>
    <linearGradient id="_Г‚ГЃ_ГЏ_ГЊГЊ_Г€_Г‹Г‚ГЊГљ_188" data-name="ВЎГ‚ГЃЛљГЏЛ‡ГЊГЊЛљГ€ вЂћпЈївЂЎвЂ°Г‹Г‚ГЊГљ 18" x1="717.81" y1="175.54" x2="774.76" y2="280.53" gradientTransform="matrix(1,0,0,1,0,0)" xlink:href="#_Г‚ГЃ_ГЏ_ГЊГЊ_Г€_Г‹Г‚ГЊГљ_18"></linearGradient>
    <linearGradient id="_Г‚ГЃ_ГЏ_ГЊГЊ_Г€_Г‹Г‚ГЊГљ_189" data-name="ВЎГ‚ГЃЛљГЏЛ‡ГЊГЊЛљГ€ вЂћпЈївЂЎвЂ°Г‹Г‚ГЊГљ 18" x1="725.54" y1="198.44" x2="757.79" y2="270.59" gradientTransform="matrix(1,0,0,1,0,0)" xlink:href="#_Г‚ГЃ_ГЏ_ГЊГЊ_Г€_Г‹Г‚ГЊГљ_18"></linearGradient>
    <linearGradient id="_Г‚ГЃ_ГЏ_ГЊГЊ_Г€_Г‹Г‚ГЊГљ_6" data-name="ВЎГ‚ГЃЛљГЏЛ‡ГЊГЊЛљГ€ вЂћпЈївЂЎвЂ°Г‹Г‚ГЊГљ 6" x1="722.42" y1="213.85" x2="725.37" y2="233.93" gradientUnits="userSpaceOnUse">
      <stop offset=".02" stop-color="#e99132"></stop>
      <stop offset="1" stop-color="#f4b466"></stop>
    </linearGradient>
    <linearGradient id="_Г‚ГЃ_ГЏ_ГЊГЊ_Г€_Г‹Г‚ГЊГљ_1810" data-name="ВЎГ‚ГЃЛљГЏЛ‡ГЊГЊЛљГ€ вЂћпЈївЂЎвЂ°Г‹Г‚ГЊГљ 18" x1="756.21" y1="236.69" x2="765.86" y2="270.84" gradientTransform="matrix(1,0,0,1,0,0)" xlink:href="#_Г‚ГЃ_ГЏ_ГЊГЊ_Г€_Г‹Г‚ГЊГљ_18"></linearGradient>
    <linearGradient id="_Г‚ГЃ_ГЏ_ГЊГЊ_Г€_Г‹Г‚ГЊГљ_61" data-name="ВЎГ‚ГЃЛљГЏЛ‡ГЊГЊЛљГ€ вЂћпЈївЂЎвЂ°Г‹Г‚ГЊГљ 6" x1="670.4" y1="242.08" x2="694.88" y2="242.08" xlink:href="#_Г‚ГЃ_ГЏ_ГЊГЊ_Г€_Г‹Г‚ГЊГљ_6"></linearGradient>
    <linearGradient id="_Г‚ГЃ_ГЏ_ГЊГЊ_Г€_Г‹Г‚ГЊГљ_62" data-name="ВЎГ‚ГЃЛљГЏЛ‡ГЊГЊЛљГ€ вЂћпЈївЂЎвЂ°Г‹Г‚ГЊГљ 6" x1="709.74" y1="221.41" x2="711.65" y2="221.41" xlink:href="#_Г‚ГЃ_ГЏ_ГЊГЊ_Г€_Г‹Г‚ГЊГљ_6"></linearGradient>
    <linearGradient id="_Г‚ГЃ_ГЏ_ГЊГЊ_Г€_Г‹Г‚ГЊГљ_63" data-name="ВЎГ‚ГЃЛљГЏЛ‡ГЊГЊЛљГ€ вЂћпЈївЂЎвЂ°Г‹Г‚ГЊГљ 6" x1="700.07" y1="243.08" x2="690.53" y2="229.84" xlink:href="#_Г‚ГЃ_ГЏ_ГЊГЊ_Г€_Г‹Г‚ГЊГљ_6"></linearGradient>
    <linearGradient id="_Г‚ГЃ_ГЏ_ГЊГЊ_Г€_Г‹Г‚ГЊГљ_64" data-name="ВЎГ‚ГЃЛљГЏЛ‡ГЊГЊЛљГ€ вЂћпЈївЂЎвЂ°Г‹Г‚ГЊГљ 6" x1="-265.2" y1="265.34" x2="-265" y2="198.15" gradientTransform="translate(608.92 -12.86) rotate(.23)" xlink:href="#_Г‚ГЃ_ГЏ_ГЊГЊ_Г€_Г‹Г‚ГЊГљ_6"></linearGradient>
    <linearGradient id="_Г‚ГЃ_ГЏ_ГЊГЊ_Г€_Г‹Г‚ГЊГљ_65" data-name="ВЎГ‚ГЃЛљГЏЛ‡ГЊГЊЛљГ€ вЂћпЈївЂЎвЂ°Г‹Г‚ГЊГљ 6" x1="384.8" y1="230.5" x2="423.8" y2="230.5" gradientTransform="translate(865.6) scale(-1 1)" xlink:href="#_Г‚ГЃ_ГЏ_ГЊГЊ_Г€_Г‹Г‚ГЊГљ_6"></linearGradient>
    <linearGradient id="_Г‚ГЃ_ГЏ_ГЊГЊ_Г€_Г‹Г‚ГЊГљ_66" data-name="ВЎГ‚ГЃЛљГЏЛ‡ГЊГЊЛљГ€ вЂћпЈївЂЎвЂ°Г‹Г‚ГЊГљ 6" x1="421.8" y1="238" x2="438.8" y2="238" gradientTransform="translate(865.6) scale(-1 1)" xlink:href="#_Г‚ГЃ_ГЏ_ГЊГЊ_Г€_Г‹Г‚ГЊГљ_6"></linearGradient>
    <linearGradient id="_Г‚ГЃ_ГЏ_ГЊГЊ_Г€_Г‹Г‚ГЊГљ_596" data-name="ВЎГ‚ГЃЛљГЏЛ‡ГЊГЊЛљГ€ вЂћпЈївЂЎвЂ°Г‹Г‚ГЊГљ 59" x1="392.4" y1="235.56" x2="410.79" y2="286.28" gradientTransform="matrix(1,0,0,1,0,0)" xlink:href="#_Г‚ГЃ_ГЏ_ГЊГЊ_Г€_Г‹Г‚ГЊГљ_59"></linearGradient>
    <linearGradient id="_Г‚ГЃ_ГЏ_ГЊГЊ_Г€_Г‹Г‚ГЊГљ_597" data-name="ВЎГ‚ГЃЛљГЏЛ‡ГЊГЊЛљГ€ вЂћпЈївЂЎвЂ°Г‹Г‚ГЊГљ 59" x1="348.61" y1="262.54" x2="360.56" y2="295.52" gradientTransform="translate(-2.76 5.49) rotate(-.89)" xlink:href="#_Г‚ГЃ_ГЏ_ГЊГЊ_Г€_Г‹Г‚ГЊГљ_59"></linearGradient>
    <linearGradient id="_Г‚ГЃ_ГЏ_ГЊГЊ_Г€_Г‹Г‚ГЊГљ_598" data-name="ВЎГ‚ГЃЛљГЏЛ‡ГЊГЊЛљГ€ вЂћпЈївЂЎвЂ°Г‹Г‚ГЊГљ 59" x1="358.76" y1="270.61" x2="366.7" y2="292.53" gradientTransform="translate(171.23 2.76) rotate(-.89) scale(.5 1)" xlink:href="#_Г‚ГЃ_ГЏ_ГЊГЊ_Г€_Г‹Г‚ГЊГљ_59"></linearGradient>
    <linearGradient id="_Г‚ГЃ_ГЏ_ГЊГЊ_Г€_Г‹Г‚ГЊГљ_599" data-name="ВЎГ‚ГЃЛљГЏЛ‡ГЊГЊЛљГ€ вЂћпЈївЂЎвЂ°Г‹Г‚ГЊГљ 59" x1="590.99" y1="264.15" x2="602.97" y2="297.2" gradientTransform="translate(171.23 2.76) rotate(-.89) scale(.5 1)" xlink:href="#_Г‚ГЃ_ГЏ_ГЊГЊ_Г€_Г‹Г‚ГЊГљ_59"></linearGradient>
    <linearGradient id="_Г‚ГЃ_ГЏ_ГЊГЊ_Г€_Г‹Г‚ГЊГљ_5910" data-name="ВЎГ‚ГЃЛљГЏЛ‡ГЊГЊЛљГ€ вЂћпЈївЂЎвЂ°Г‹Г‚ГЊГљ 59" x1="607.79" y1="343.15" x2="619.77" y2="376.21" gradientTransform="translate(172.44 101.61) rotate(-.89) scale(.5)" xlink:href="#_Г‚ГЃ_ГЏ_ГЊГЊ_Г€_Г‹Г‚ГЊГљ_59"></linearGradient>
    <linearGradient id="_Г‚ГЃ_ГЏ_ГЊГЊ_Г€_Г‹Г‚ГЊГљ_5911" data-name="ВЎГ‚ГЃЛљГЏЛ‡ГЊГЊЛљГ€ вЂћпЈївЂЎвЂ°Г‹Г‚ГЊГљ 59" x1="317.81" y1="209.99" x2="334.65" y2="256.46" gradientTransform="translate(-50.1532 -202.9025) rotate(-6.9324) scale(1 2.273)" xlink:href="#_Г‚ГЃ_ГЏ_ГЊГЊ_Г€_Г‹Г‚ГЊГљ_59"></linearGradient>
    <linearGradient id="_Г‚ГЃ_ГЏ_ГЊГЊ_Г€_Г‹Г‚ГЊГљ_3010" data-name="ВЎГ‚ГЃЛљГЏЛ‡ГЊГЊЛљГ€ вЂћпЈївЂЎвЂ°Г‹Г‚ГЊГљ 30" x1="444.51" y1="243.56" x2="477.71" y2="321.03" xlink:href="#_Г‚ГЃ_ГЏ_ГЊГЊ_Г€_Г‹Г‚ГЊГљ_30"></linearGradient>
  
  </defs><g clip-path="url(#hclip)">
    <polygon points="340,22 495,114 495,288 340,380 185,288 185,114" fill="#F8EDC7"></polygon>

    <!-- Full-bleed tight crop on the temple/obelisk, tightened to trim the stray green horizon band -->
    <svg x="185" y="14" width="310" height="374" viewBox="542.47 70 145.06 175" preserveAspectRatio="xMidYMid slice">

  <g class="st67">
    <g id="_x2014_ГЋГ“Г€_x5F_1">
      <g class="st76">
        <rect class="st85" x="275.25" width="607.49" height="209.49"></rect>
        <path class="st69" d="M841.74,97s-83.54-28.76-84.77-25.38c-1.23,3.38-21.23-2.62-21.23-2.62,0,0,36,13,38,16s-67-23-75-23-78.76-9.27-78.76-9.27l-26.24-7.73s32,14,35,14,24,6,33,10,105,36,108,34,8,2,15,4,53,15,53,15l4-25Z"></path>
        <path class="st69" d="M631.74,64.62s-36.75-10.5-42-10.5-1.45,5.25-1.45,5.25l-49.53-13.39-33.02-4.98,34.12,13.12s47.25,10.5,52.5,13.12,5.25-10.5,39.38-2.62Z"></path>
        <path class="st69" d="M510.3,107.36s-44.62-20.82-44.62-16.36,14.87,11.9,14.87,11.9c0,0-98.16-20.82-98.16-16.36s-26.77,5.95-29.74,5.95-17.85-14.87-34.21-14.87-137.54-24.64-137.54-24.64c0,0,98.88,29.1,101.85,30.59s5.95,4.46,5.95,4.46c0,0,41.64,8.92,43.13,8.92s20.82,1.49,22.31,0,93.69,23.8,98.16,23.8-1.49-4.46,11.9-2.97c13.38,1.49,111.54,8.92,111.54,8.92l-22.31-4.46s-26.77-11.9-29.74-13.38c-2.97-1.49-5.95,2.97-5.95,2.97l-7.44-4.46Z"></path>
        <path class="st69" d="M259.74,165l541,28-267-29,348.37,21.53-22.37-22.53s-70,0-74-1-55-4-55-4l-107.78-13.72-135.22-15.28s223,21,228,21-16-7,2-7,111,15,112,15,83,10,83,10v55l-656.17-15.7,3.17-42.3Z"></path>
        <polygon class="st10" points="851.74 208 806.74 215 268.74 215 268.86 214.03 271.57 191.45 271.74 190 293.74 198 323.74 198 357.74 191 390.74 200 393.15 200.25 416.32 202.7 422.21 203.32 423.2 203.42 437.74 201 448.74 194 470.86 193.27 560.74 179 582.74 178 614.74 187 644.74 189 663.17 193.75 758.27 197.89 760.74 198 763.74 200 780.74 200 791.74 204 843.74 205 851.74 208"></polygon>
        <path class="st4" d="M851.74,208l-45,7H283.07l-14.21-.97-15.12-1.03,12-25,5.83,3.45,21.17,12.55h5l10.04,2.95,16.96-.95,3-2,9-1,24-8-3-4,35.41,9.25,23.17,2.45,5.89.62-12.47,1.68,8,1,26-1,16-2s-5,2-4,2,37-1,37-1l5-3,32-6,8-3,5,3-1,5,21,4,29-7,4-8-11-8-2-3,32,9,30,2-30,1v4l-13,10,30,1,55-2,25-1,41,2,7-3-1.47-3.11,2.47.11,3,2h17l11,4,52,1,8,3Z"></path>
        <g>
          <rect class="st46" x="274.26" y="206.95" width="590.47" height="65.76"></rect>
          <path class="st66" d="M267.1,243.24h277.53c11.79-1.02,23.62-.92,35.41,0,11.79,1.68,23.54-5.67,35.18,0,11.64-.24,23.17,2.64,34.5,0h33.37c97.95,0,180.64-19.24,180.64-19.24l-6.17,85H267.1v-65.76Z"></path>
          <path class="st5" d="M273.78,261.28l149.64.46s-57.95.51-63.86,3.12c-5.9,2.61,158.53,5.98,184.67,5.98s191.42-4.48,191.42-4.48c0,0-172.86,6.35-195.63,6.35h-274.05l7.82-11.42Z"></path>
          <path class="st5" d="M444.39,238.68s56.51-3.87,59.81-3.87,37.95,2.97,37.95,2.97c0,0,15.26-2.97,16.91-2.97s35.89,5.65,35.89,5.65h-61.46l5.78-1.78h-94.88Z"></path>
        </g>
        <polygon class="st2" points="548.74 250 582.4 248.99 593.71 250.06 612.56 251.21 657.26 250.33 669.18 251.21 708.45 250.74 708.75 250.06 709.58 250.33 710.03 250.8 716.44 250.67 718.7 250.74 721.64 250.74 730.99 250.54 741.79 250.54 744.71 250.6 747.12 250.06 755.03 250.33 756.41 251.21 758.65 250.67 758.65 250.33 761.14 250.06 762.7 251.21 763.93 250.06 766.19 250.06 766.27 250.87 779.03 250.54 780.82 250.33 804.79 250.33 808.48 250.8 812.02 250.33 812.85 250.06 813.98 250.67 815.72 250.33 816.85 250.74 833.06 250.8 834.05 250.1 842.94 250.32 846.48 250.87 849.64 250.06 849.64 248.99 852.2 248.52 854.84 249.73 854.84 250.8 856.73 249.06 855.82 247.31 856.73 245.16 865.92 244.49 874.44 246.57 874.44 248.52 868.64 249.73 868.79 250.53 877.46 250.54 879.34 249.73 887.86 251.21 890.74 254 545.74 251 548.74 250"></polygon>
        <polygon class="st2" points="2.11 249.21 10.4 246.99 21.71 248.06 40.56 249.21 85.26 248.33 97.18 249.21 136.45 248.74 136.75 248.06 137.58 248.33 138.03 248.8 144.44 248.67 146.7 248.74 149.64 248.74 158.99 248.54 169.79 248.54 172.71 248.6 175.12 248.06 183.03 248.33 184.41 249.21 186.65 248.67 186.65 248.33 189.14 248.06 190.7 249.21 191.93 248.06 194.19 248.06 194.27 248.87 207.03 248.54 208.82 248.33 232.79 248.33 236.48 248.8 240.02 248.33 240.85 248.06 241.98 248.67 243.72 248.33 244.85 248.74 261.06 248.8 262.05 248.1 270.94 248.32 274.48 248.87 277.64 248.06 277.64 246.99 280.2 246.52 282.84 247.73 282.84 248.8 284.73 247.06 283.82 245.31 284.73 243.16 293.92 242.49 302.44 244.57 302.44 246.52 296.64 247.73 296.79 248.53 305.46 248.54 307.34 247.73 315.86 249.21 316.92 250.28 0 250.28 2.11 249.21"></polygon>
        <g>
          <polygon class="st9" points="658.75 274.96 649.92 273.77 617.46 276.83 633.2 277.97 653.07 276.97 658.75 274.96"></polygon>
          <polygon class="st9" points="615.2 268.58 609.08 269.17 604.07 269.17 601.35 269.1 608.73 266.58 615.2 268.58"></polygon>
          <polygon class="st9" points="468.74 277.06 463.68 275.05 457.99 275.05 450.4 277.06 468.74 277.06"></polygon>
          <g>
            <polygon class="st87" points="449.17 277.03 453.41 276.9 464.05 276.55 458.24 273.27 450.75 275.36 449.17 277.03"></polygon>
            <polygon class="st11" points="449.74 277 464.05 276.55 458.24 273.27 453.9 276.2 449.74 277"></polygon>
          </g>
          <g>
            <polygon class="st33" points="617.28 276.86 627.47 276.53 653.07 275.7 639.08 267.81 621.07 272.84 617.28 276.86"></polygon>
            <polygon class="st11" points="627.47 276.53 653.07 275.7 639.08 267.81 628.65 274.85 627.47 276.53"></polygon>
          </g>
          <g>
            <polygon class="st34" points="601.35 268.99 604.17 268.76 611.25 268.19 607.38 262.73 602.4 266.21 601.35 268.99"></polygon>
            <polygon class="st11" points="604.17 268.76 611.25 268.19 607.38 262.73 604.49 267.6 604.17 268.76"></polygon>
          </g>
          <polygon class="st9" points="601.29 269.17 598.32 268.9 590.1 269.67 595.16 269.76 599.62 269.76 601.29 269.17"></polygon>
          <g>
            <polygon class="st35" points="590.17 269.69 592.84 269.61 599.53 269.39 595.88 267.33 591.17 268.64 590.17 269.69"></polygon>
            <polygon class="st11" points="592.84 269.61 599.53 269.39 595.88 267.33 593.15 269.17 592.84 269.61"></polygon>
            <polygon class="st62" points="592.65 269.17 591.17 268.64 590.17 269.69 592.69 269.61 592.65 269.17"></polygon>
            <polygon class="st62" points="595.62 267.4 592.9 268.9 591.17 268.64 595.62 267.4"></polygon>
          </g>
        </g>
        <g>
          <polygon class="st9" points="659.6 285.61 646.31 284.84 609.5 287.06 632.16 287.3 652.12 287.3 659.6 285.61"></polygon>
          <polygon class="st9" points="721.97 283.91 694.53 285.61 672.08 285.61 659.87 285.42 692.94 278.17 721.97 283.91"></polygon>
          <g>
            <polygon class="st36" points="609.81 287.12 621.75 286.87 651.75 286.25 635.36 280.33 614.25 284.1 609.81 287.12"></polygon>
            <polygon class="st11" points="611.74 287 651.75 286.25 635.36 280.33 623.14 285.61 611.74 287"></polygon>
          </g>
          <g>
            <polygon class="st29" points="659.87 285.1 672.51 284.44 704.24 282.81 686.91 267.13 664.57 277.12 659.87 285.1"></polygon>
            <polygon class="st11" points="659.74 285 704.24 282.81 686.91 267.13 673.98 281.11 659.74 285"></polygon>
          </g>
        </g>
        <polygon class="st27" points="864.73 206.95 864.73 219 794.74 219 714.74 212 664.78 215 587.74 216 569.7 215 422.74 225 437.74 230 287.74 241 274.26 241.18 420.74 229 406.74 224 527.49 215 394.46 215 380.74 212 326.74 214 274.26 209.87 274.26 206.95 864.73 206.95"></polygon>
        <g>
          <polygon class="st8" points="468.36 292.61 550.97 293.78 619.29 294.66 623.14 290.93 610.51 288.88 605.5 285.05 508.4 281.21 468.36 292.61"></polygon>
          <polygon class="st86" points="467.06 286.75 466.98 292.63 542.62 291.63 542.75 291.62 602.66 290.84 599.6 277.87 599.48 277.38 591.93 266 542.18 271.24 494.38 268.33 494.38 268.33 493.32 268.27 489.27 276.45 489.18 283.5 471.05 283.27 467.06 286.75"></polygon>
          <polygon class="st6" points="494.38 268.33 525.34 283.6 521.74 287 493.74 286 489.74 292 542.62 291.63 542.75 291.62 602.66 290.84 599.6 277.87 599.48 277.38 591.93 266 530.78 280.53 494.38 268.33"></polygon>
          <polygon class="st7" points="533.74 287 541.94 290.06 542.75 291.62 602.66 290.84 599.6 277.87 533.74 287"></polygon>
          <polygon class="st38" points="493.32 268.27 519.16 282.71 519.15 283.89 489.27 276.45 493.32 268.27"></polygon>
          <polygon class="st37" points="493.1 285.91 489.18 283.5 471.05 283.27 467.06 286.75 486.74 289.35 493.1 285.91"></polygon>
          <polygon class="st42" points="537.6 278.91 542.48 277.15 547.66 276.52 543.21 277.9 537.6 278.91"></polygon>
          <polygon class="st39" points="545.26 285.09 553.51 284.71 563.82 282.62 554.03 283.07 549.08 283.17 545.26 285.09"></polygon>
        </g>
        <g>
          <g>
            <path class="st82" d="M589.29,101.08l-.53,5.85-.42-.06-15.67-2.33c0-.4-.27-6.12-.27-6.12l4.12-.27s-.06-.2-.13-.52c-.19-.76-.49-2.19-.4-2.94.11-.85,2.11-2.83,3.16-3.57.26-.18.46-.29.56-.29.53,0,3.19,2.93,3.46,3.59.27.66,0,3.59,0,3.59l4.25.13,1.86,2.93Z"></path>
            <path class="st12" d="M589.02,101.08l-.53,5.85-.16-.06-1.84-1.4.8-7.05-10.77-.27,2.93-.4s2.39-1.06,2.66-2.79c.27-1.73-2.13-3.86-2.13-3.86.53,0,2.79,2.79,3.06,3.46.27.66-.27,3.46-.27,3.46l4.65.13,1.6,2.93Z"></path>
            <path class="st47" d="M607.5,223.02h-124.19l13.29-60.24,1.27-1.2-1.27-1.33v-2.13l7.83-26.59,3.1-10.5,1.27-1.6,1.27-6.91v-1.2l.14-.62s0-.01,0-.03v-.04s.06-.21.06-.21c0-.05.02-.09.03-.15l.85-3.84s0-.03,0-.03l18.94-.93,10.2-.27h11.65l4.73-1.06,30.41-.66.18.3,16.94,27.76,3.28,91.48Z"></path>
            <path class="st25" d="M508.04,193.1h-14.23l-1.4-1.33,3.02-.27,12.61,1.6ZM585.47,176.21v-7.98l1.64-1.73v11.44l-.91,33.91-1.09-29.92-.18-4.79-9.83-.93h10.38ZM607.5,223.02l-2.95-82.25-.33-9.24-16.93-27.76v25.37l-4.92-.08v.48l-10.2.53-8.01,1.06,23.31-.4v7.85l-1.46,1.33.55,5.98-.36,8.51-22.03-.66-4.19.66-5.28.8s-.18,34.7-3.28,34.97c-3.1.27-4.92.4-6.01,0s.55-20.61-.91-21.14c-1.46-.53-5.75,1.6-5.39-2.93.36-4.52-1.28-12.9-1.28-12.9l-20.83,1.06h-7.83l-2.73-4.52-3.62-.8-1.2-1.06,6.63-16.09,21.85-1.33v6.52l2.09-14.89.1-.93-2.19,6.91s-22.58,1.33-22.95.93c-.36-.4,2.93-6.12,3.3-6.91.36-.78,31.56-2.21,32.73-2.26-1.14.03-31.65.79-32.54.4-.88-.39,1.31-12.59,1.45-13.39l-1.08,4.88v1.2l-1.28,6.91-1.28,1.6-4.03,10.11-5.54,22.23h0s-1.09,3.7-1.09,3.7v.05-.05s2,1.46,2,1.46l1.99.8,3.59.13,7.31,1.86-13.83-1.6-1.07-.95v.42l1.28,1.33-.91.85-.36.34-4.77,16.88h0s-9.71,44.02-9.71,44.02h18.95l22.29-1.6v-7.58s1.98-11.17,1.98-11.17l3.19-27.66h-13.38l13.51-1.06,1.73-3.86.8-4.52.8-1.33-7.45,58.91,2.08-.13h14.27l3.34-5.19,10.38.13.55-7.05s-.36-3.72-.55-3.99c-.18-.27-2-.53-3.28-.8-1.27-.27-2.73-.4-2.73-.4l-9.04-.66h15.05v-2.93l3.43-11.25-2.53,32.26,9.82-.13.02-59.7.84,6.52,3.46,3.06-.13,3.46-3.46.8v6.52h6.92l-6.19.66.55,4.79-1.28,21.94v7.31l1.46,1.06-.07,3.59h38.85Z"></path>
            <g>
              <polygon class="st22" points="536.9 164.26 535.57 224.61 525.63 224.61 533.11 164.26 536.9 164.26"></polygon>
              <polygon class="st88" points="536.9 165.21 535.57 224.61 530.08 224.61 535.1 165.21 536.9 165.21"></polygon>
            </g>
            <polygon class="st88" points="606.57 222.75 588.02 223.02 588.02 161.05 588.93 159.06 588.93 141.51 589.29 108.13 603.78 131.53 604.49 149.06 603.38 148.42 599.66 147.22 604.54 150.11 605.04 162.44 604.58 164.51 605.11 169.16 604.31 177.94 605.9 183.61 606.57 222.75"></polygon>
            <g>
              <polygon class="st22" points="566.55 163.31 566.55 223.67 556.74 223.67 561.82 163.31 566.55 163.31"></polygon>
              <polygon class="st24" points="566.55 164.26 566.55 223.67 559.69 223.67 564.3 164.26 566.55 164.26"></polygon>
            </g>
            <g>
              <polygon class="st21" points="543.43 109.46 543.03 112.52 542.76 114.51 536.77 114.51 537.17 109.46 543.43 109.46"></polygon>
              <polygon class="st24" points="543.03 112.52 542.76 114.51 538.61 114.51 538.77 112.52 543.03 112.52"></polygon>
              <polygon class="st59" points="532.11 114.78 536.9 114.78 541.03 115.05 547.69 114.78 543.3 114.25 543.83 109.19 537.17 109.46 543.43 109.46 542.76 114.51 536.77 114.51 532.11 114.78"></polygon>
            </g>
            <g>
              <polygon class="st21" points="570.1 109.06 569.7 112.12 569.43 114.11 563.4 114.11 563.8 109.06 570.1 109.06"></polygon>
              <polygon class="st24" points="569.7 112.12 569.43 114.11 565.25 114.11 565.41 112.12 569.7 112.12"></polygon>
              <polygon class="st59" points="558.71 114.38 563.53 114.38 567.69 114.65 574.39 114.38 569.97 113.85 570.51 108.8 563.8 109.06 570.1 109.06 569.43 114.11 563.4 114.11 558.71 114.38"></polygon>
            </g>
            <path class="st59" d="M587.11,103.48l-29.86,1.33-4.19.93-.73.93-7.65-.4s-31.32.53-32.6.93c-.98.31-1.55,2.2-1.77,3.07l.85-3.84s0-.03,0-.03l18.94-.93,10.2-.27h11.65l4.73-1.06,30.41-.66Z"></path>
            <polygon class="st25" points="531.57 149.75 531.57 150.68 509.72 150.68 510.26 144.17 510.29 144.16 510.44 149.75 531.57 149.75"></polygon>
            <polygon class="st25" points="555.93 124.24 555.91 123.44 574.64 123.18 574.32 128.77 574.3 128.77 574.04 123.98 555.93 124.24"></polygon>
            <polygon class="st24" points="513.36 161.85 501.89 161.85 496.97 162.44 497.88 161.58 496.6 160.26 496.6 158.13 497.69 154.43 496.97 158.39 498.79 160.12 513.36 161.85"></polygon>
            <path class="st23" d="M500.97,217.3l.91,3.06s-.36,1.53-.72,2.66h-17.86l9.72-44.02-1.7,13.04h.91l1.64,1.06h14.93l-16.94,1.2-3.46,9.57-.55,2.53.73,1.73-1.82,3.06-1.27,3.72v2.39h15.48Z"></path>
            <path class="st60" d="M579.55,91.13s1.89,1.18.69,4.24c-.45,1.14-3.72.93-3.72.93-.13-.8-.13-.4-.13-1.33,0-.86,2.11-3.09,3.16-3.83h0Z"></path>
            <path class="st61" d="M573.73,98.69v3.32h1.2l2.53.4h-3.72s-.27.93,0,1.06c.27.13,8.78,0,8.78,0v-3.32l-1.46-1.06-2.39-.53-4.92.13Z"></path>
          </g>
          <g>
            <path class="st49" d="M638.88,101.08l.53,5.85.42-.06,15.67-2.33c0-.4.27-6.12.27-6.12l-4.12-.27s.06-.2.13-.52c.19-.76.49-2.19.4-2.94-.11-.85-2.11-2.83-3.16-3.57-.26-.18-.46-.29-.56-.29-.53,0-3.19,2.93-3.46,3.59-.27.66,0,3.59,0,3.59l-4.25.13-1.86,2.93Z"></path>
            <path class="st12" d="M639.15,101.08l.53,5.85.16-.06,1.84-1.4-.8-7.05,10.77-.27-2.93-.4s-2.39-1.06-2.66-2.79c-.27-1.73,2.13-3.86,2.13-3.86-.53,0-2.79,2.79-3.06,3.46-.27.66.27,3.46.27,3.46l-4.65.13-1.6,2.93Z"></path>
            <path class="st48" d="M620.67,223.02h124.19l-13.29-60.24-1.27-1.2,1.27-1.33v-2.13l-7.83-26.59-3.1-10.5-1.27-1.6-1.27-6.91v-1.2l-.14-.62s0-.01,0-.03v-.04s-.06-.21-.06-.21c0-.05-.02-.09-.03-.15l-.85-3.84s0-.03,0-.03l-18.94-.93-10.2-.27h-11.65l-4.73-1.06-30.41-.66-.18.3-16.94,27.76-3.28,91.48Z"></path>
            <path class="st25" d="M736.09,183.66l-2-4.53-3.58-16.21h0s-.36-.34-.36-.34l-.91-.85,1.27-1.33h0v-2.13l-.67-3.46-.66-.53-6.36-22.07-3.1-10.5-1.28-1.6-.57-6.91v-1.2l-1.06-4.39c.14.79,1.6,12.51.72,12.9-.91.4-32.58-.66-32.58-.66,0,0,32.39,1.73,32.76,2.53.36.8,2.73,6.91,2.37,7.31-.36.4-22.01-1.6-22.01-1.6l-6.79-1.2-3.99.27,8.78,1.06,2,2.26,20.92,1.99,7.83,16.22v1.73h-6.01l-1.8,3.86h-7.83l1.51,9.17s-24.56-3.72-24.2.8c.36,4.52,2.52,9.57,1.06,10.11s-5.69,15.42-6.78,15.82-2.91.27-6.01,0c-3.1-.27-3.28-34.97-3.28-34.97l-5.28-.8-4.19-.66-22.03.66-.36-8.51.55-5.98-1.46-1.33v-7.85l23.31.4-8.01-1.06-10.2-.53v-.48l-4.92.08v-25.37l-16.93,27.76-.33,9.24-2.95,82.25h38.85l-.07-3.59,1.46-1.06v-7.31l-1.28-21.94.55-4.79-6.19-.66h6.92v-6.52l-3.46-.8-.13-3.46,3.46-3.06.84-6.52.02,59.7,9.82.13-2.26-25.53,1.33,5.72.93,7.98h11.3l-9.04.66s-1.46.13-2.73.4c-1.28.27,2.09.13,1.91.4-.18.27-.55,3.99-.55,3.99v1.2s10.39-.13,10.39-.13l3.34,5.19h14.27l2.08.13-7.45-58.91.8,1.33.8,4.52,1.73,3.86,13.51,1.06h-13.38l3.19,27.66,1.99,11.17v9.31l22.27-.13h18.95l-8.78-39.36ZM721.4,193.1l12.53-.93,1.82-.4-1.46,1.33h-12.9Z"></path>
            <g>
              <polygon class="st22" points="691.27 164.26 692.6 224.61 702.54 224.61 695.06 164.26 691.27 164.26"></polygon>
              <polygon class="st88" points="691.27 165.21 692.6 224.61 698.09 224.61 693.07 165.21 691.27 165.21"></polygon>
            </g>
            <polygon class="st88" points="620.67 223.02 640.15 223.02 640.15 161.05 639.24 159.06 639.24 141.51 638.88 108.13 624.39 131.53 620.67 223.02"></polygon>
            <g>
              <polygon class="st22" points="661.62 163.31 661.62 223.67 671.44 223.67 666.35 163.31 661.62 163.31"></polygon>
              <polygon class="st88" points="661.62 164.26 661.62 223.67 668.48 223.67 663.87 164.26 661.62 164.26"></polygon>
            </g>
            <g>
              <polygon class="st21" points="684.74 109.46 685.15 112.52 685.41 114.51 691.4 114.51 691 109.46 684.74 109.46"></polygon>
              <polygon class="st24" points="685.15 112.52 685.41 114.51 689.56 114.51 689.4 112.52 685.15 112.52"></polygon>
              <polygon class="st59" points="696.06 114.78 691.27 114.78 687.14 115.05 680.48 114.78 684.88 114.25 684.34 109.19 691 109.46 684.74 109.46 685.41 114.51 691.4 114.51 696.06 114.78"></polygon>
            </g>
            <g>
              <polygon class="st21" points="658.07 109.06 658.47 112.12 658.74 114.11 664.77 114.11 664.37 109.06 658.07 109.06"></polygon>
              <polygon class="st24" points="658.47 112.12 658.74 114.11 662.92 114.11 662.76 112.12 658.47 112.12"></polygon>
              <polygon class="st59" points="669.47 114.38 664.64 114.38 660.48 114.65 653.78 114.38 658.2 113.85 657.67 108.8 664.37 109.06 658.07 109.06 658.74 114.11 664.77 114.11 669.47 114.38"></polygon>
            </g>
            <path class="st59" d="M641.06,103.48l29.86,1.33,4.19.93.73.93,7.65-.4s31.32.53,32.6.93c.98.31,1.55,2.2,1.77,3.07l-.85-3.84s0-.03,0-.03l-18.94-.93-10.2-.27h-11.65l-4.73-1.06-30.41-.66Z"></path>
            <polygon class="st25" points="645 149.75 645 150.68 666.85 150.68 666.31 144.17 666.28 144.16 666.13 149.75 645 149.75"></polygon>
            <polygon class="st25" points="672.24 124.24 672.26 123.44 653.53 123.18 653.85 128.77 653.87 128.77 654.13 123.98 672.24 124.24"></polygon>
            <path class="st60" d="M648.75,91.4s-1.89,1.18-.69,4.24c.45,1.14,3.72.93,3.72.93.13-.8.13-.4.13-1.33,0-.86-2.11-3.09-3.16-3.83h0Z"></path>
            <path class="st61" d="M654.44,98.69v3.32h-1.2l-2.53.4h3.72s.27.93,0,1.06c-.27.13-8.78,0-8.78,0v-3.32l1.46-1.06,2.39-.53,4.92.13Z"></path>
          </g>
          <g>
            <path class="st81" d="M799.11,232.46l-350.69-.61s-2.25-4.31-1.45-4.78c0,0,.01,0,.02,0,.94-.46,11.87-.46,11.87-.46,0,0,.64-1.21,1.61-1.28.96-.07,10.6-.27,10.6-.27,0,0-.33-.47-.49-.94-.16-.47-.15-.94.49-1.01,1.29-.13,13.49,0,13.49,0h265.07v.94l8.19.27,2.25.94s34.06-.14,35.66,1.01c1.61,1.14,3.37,6.2,3.37,6.2Z"></path>
            <path class="st24" d="M799.11,232.46l-350.69-.61s-2.25-4.31-1.45-4.78c0,0,.01,0,.02,0,4.36-.14,74.52,1.29,74.52,1.29h13.98l33.25.61h-71.65l-1.77,1.01,90.6,1.28,116.79.27s94.37.23,95.01-.51c.64-.74-2.23-4.6-4-5-1.77-.4-124.27,1.07-124.27,1.07l86.43-1.08-.32-1.15h-39.36l30.68-.54,2.73-1.21v.94l8.19.27,2.25.94s34.06-.13,35.66,1.01,3.37,6.2,3.37,6.2Z"></path>
            <polygon class="st63" points="490.67 225.79 620.79 226.34 664.01 227.07 619.67 227.54 545.45 226.66 535.97 226.33 514.93 226.26 490.67 225.79"></polygon>
            <polygon class="st16" points="600.07 229.16 677.34 229.16 776.46 228.41 694.37 228.41 691.48 227.74 675.09 228.41 674.61 228.68 600.07 229.16"></polygon>
            <path class="st63" d="M700.44,223.15l-36.12.53-20.14.8-60.43-.8h-98.01l-12.17.93-2.16.4-.82-.91c-.16-.47-.15-.94.49-1.01,1.29-.13,13.49,0,13.49,0h214.97l.9.06Z"></path>
          </g>
          <polygon class="st23" points="736.29 184.03 736.88 189.77 737.41 191.77 735.82 191.77 734.36 193.1 723.25 193.1 735.82 194.16 737.41 196.82 740.34 207.33 741.8 212.51 740.21 214.77 742.4 223 744.86 223.02 736.29 184.03"></polygon>
          <polygon class="st24" points="731.56 160.26 730.29 161.58 731.2 162.44 731.56 162.78 731.56 162.78 729.84 162.25 723.59 162.25 729.57 161.45 731.56 160.26 731.56 160.26"></polygon>
          <g>
            <polygon class="st50" points="737.95 222.35 736.95 231.56 736.95 231.56 736.88 232.19 709.89 232.19 708.71 222.5 708.69 222.35 737.95 222.35"></polygon>
            <polygon class="st16" points="734.66 229.42 734.22 229.93 736.35 230.99 736.95 231.56 736.95 231.56 736.66 232.19 717.9 232.19 718.27 223.02 714.54 223.02 708.71 222.5 708.69 222.35 729.84 222.88 737.41 222.75 736.95 229.23 734.66 229.42"></polygon>
            <g>
              <path class="st51" d="M730.21,221.17v1.18h-14.76v-2.95l2.21-1.03s-.89-8.12-1.03-9.59-1.18-3.84-1.33-4.57-.74-6.49-.74-6.49l.59-9.59-1.92-2.66-.07-.36h0s-1.55-7.75-1.55-7.75c0,0-.15-8.56.74-9.89s4.57-2.8,4.57-2.8l.74-3.1-.89-3.39s-2.36-3.69-2.07-6.35c.27-2.39,1.6-7.52,3.16-9.06,0,0,0,0,0,0,.17-.18.35-.3.53-.38,1.77-.74,1.77-.59,1.77-.59l2.36,1.92s3.39,6.35,3.39,7.67-1.48,4.28-1.48,4.28v2.95c0,.59-1.92,4.43-1.92,4.43v1.92s2.66,0,3.39.74,3.1,7.23,3.1,7.23v6.49c0,1.03-1.92,3.69-1.92,3.69l-1.18,1.03s0,.01,0,.03c.02.27.21,2.09,1.03,4.54.89,2.66.15,8.26.15,8.26,0,0,0,8.41-.3,10.04-.21,1.17-.58,6.37-.76,9.21h0c-.07,1.12-.12,1.86-.12,1.86,0,0,1.18.15,1.92.74.74.59,2.36,2.36,2.36,2.36Z"></path>
              <path class="st16" d="M722.1,144.28s3.25,5.76,3.25,6.2-.59,3.84-.74,3.98c-.15.15-.44.74-.44.74l-.44.74.3,1.18.15,1.48s-1.33,2.8-1.48,3.1c-.15.3-.59.3-.59.3h-1.77l1.77.74v2.36s2.07.3,2.51.44c.44.15.74,0,1.18.74.44.74,1.48,3.25,1.48,3.25l-1.92.44h2.21l1.21,2.24-.03,2.63s-.3,4.87-.3,5.02-2.8,3.69-2.8,3.69l-1.92-.3-.74-1.18h-2.07l2.8-1.18,2.36-2.07-.89-3.54-2.66.3-1.62-.15-4.72.59,4.72-1.18,1.18-.59,1.18.59,1.77-.74.15-2.95-.59-1.03-1.48-.15,2.95-.74s-.44-2.51-.89-2.8c-.44-.3-2.66-.59-2.66-.59l-1.18-.59h-3.69l.44-2.07,3.1-.15-2.51-1.18-.74-.44s3.69-.44,3.98-.89c.3-.44,1.03-2.21,1.03-2.8s-.44-2.21-.44-2.21c0,0-.44-.74-1.03-.74s-3.39.3-3.39.3l-1.62,1.48s1.18-1.92,1.48-2.07c.3-.15,5.31-.74,5.61-1.48.3-.74.59-2.66.44-3.25-.15-.59-4.72-.74-4.72-.74,0,0,3.98.15,4.13-.3.15-.44-1.33-4.43-1.33-4.43Z"></path>
              <path class="st63" d="M720.47,159.63l-2.51,1.33-.15,1.33-.74,2.8s-1.33,3.1-2.95,3.69c-1.62.59-1.62-.15-1.62-.15l-.3,3.25.3,3.1-.3,2.07.96,8.05h0s-1.55-7.75-1.55-7.75c0,0-.15-8.56.74-9.89s4.57-2.8,4.57-2.8l.74-3.1-.89-3.39s-2.36-3.69-2.07-6.35c.27-2.39,1.6-7.52,3.16-9.06-.07.12-2.42,4.24-2.27,7.29.15,3.1.59,4.57.59,4.57l-.44.59,1.18,1.92s1.77-.44,2.8.89c1.03,1.33.74,1.62.74,1.62Z"></path>
              <path class="st16" d="M719.44,218.37h6.05l-2.36-.89s-.89.44-.74-3.98c.15-4.43,1.03-8.26,1.03-8.26l-.3-3.54.15-8.56,1.03-2.51s-2.66,1.18-3.39,1.48c-.74.3-2.51-1.48-2.66-.89s2.51,10.33,2.66,11.07.15,3.98.3,5.31c.11.96.25,6.64-.3,9.44-.21,1.06-1.48,1.33-1.48,1.33Z"></path>
              <path class="st71" d="M721.95,204.35s-1.77-10.48-1.33-10.63l.44-.15.74-.44s-.3.74-.3,1.18.59,5.46.59,5.46c0,0,.74,3.84.74,4.28s-.44,2.66-.44,2.66l-.31,7.23-.28-7.97.15-1.62Z"></path>
              <path class="st16" d="M726.78,198.02s-.4,8.25-.69,9.87c-.21,1.17-.58,6.37-.76,9.21-.05-3.21-.16-9.51-.27-9.94-.15-.59-1.18-1.18-1.18-1.62s1.77-.74,1.77-1.92v-6.49s.74-5.76.59-6.35c-.15-.59-1.33-3.69-1.77-4.13-.44-.44-6.94-.44-6.94-.44l5.31-.59,2.36-.56c.02.27.89,2.54,1.71,4.99.89,2.66-.13,7.98-.13,7.98Z"></path>
              <polygon class="st16" points="715.64 222.35 717.67 222.06 718.26 219.1 724.46 219.55 727.56 219.55 729.57 221.17 729.57 222.35 715.64 222.35"></polygon>
              <path class="st15" d="M718.26,217.78s-1.33-9.89-1.03-9.89,1.92-1.33,1.92-1.33l1.03-1.33-.44,1.48-1.77,1.77v.44s2.21-.74,2.21-.44.15,5.02,0,6.35c-.15,1.33-1.92,2.95-1.92,2.95Z"></path>
            </g>
          </g>
          <g>
            <polygon class="st52" points="661.2 215.51 660.43 222.66 660.42 222.66 660.37 223.15 639.41 223.15 638.5 215.63 638.49 215.51 661.2 215.51"></polygon>
            <polygon class="st16" points="658.65 221 658.31 221.39 659.96 222.22 660.43 222.66 660.42 222.66 660.2 223.15 645.63 223.15 645.92 216.03 643.03 216.03 638.5 215.63 638.49 215.51 654.9 215.92 660.78 215.82 660.43 220.85 658.65 221"></polygon>
            <g>
              <path class="st53" d="M655.19,214.59v.92h-11.46v-2.29l1.72-.8s-.69-6.3-.8-7.45c-.11-1.15-.92-2.98-1.03-3.55s-.57-5.04-.57-5.04l.46-7.45-1.49-2.06-.06-.28h0s-1.2-6.02-1.2-6.02c0,0-.11-6.65.57-7.68.69-1.03,3.55-2.18,3.55-2.18l.57-2.41-.69-2.64s-1.83-2.86-1.6-4.93c.21-1.85,1.25-5.84,2.45-7.04,0,0,0,0,0,0,.14-.14.27-.24.41-.29,1.37-.57,1.37-.46,1.37-.46l1.83,1.49s2.64,4.93,2.64,5.96-1.15,3.32-1.15,3.32v2.29c0,.46-1.49,3.44-1.49,3.44v1.49s2.06,0,2.64.57c.57.57,2.41,5.61,2.41,5.61v5.04c0,.8-1.49,2.86-1.49,2.86l-.92.8s0,0,0,.03c.02.21.16,1.62.8,3.53.69,2.06.11,6.42.11,6.42,0,0,0,6.53-.23,7.79-.16.91-.45,4.95-.59,7.15h0c-.06.87-.09,1.45-.09,1.45,0,0,.92.11,1.49.57.57.46,1.83,1.83,1.83,1.83Z"></path>
              <path class="st16" d="M648.89,154.9s2.52,4.47,2.52,4.81-.46,2.98-.57,3.09c-.11.11-.34.57-.34.57l-.34.57.23.92.11,1.15s-1.03,2.18-1.15,2.41c-.11.23-.46.23-.46.23h-1.37l1.37.57v1.83s1.6.23,1.95.34c.34.11.57,0,.92.57.34.57,1.15,2.52,1.15,2.52l-1.49.34h1.72l.94,1.74-.03,2.04s-.23,3.78-.23,3.9-2.18,2.86-2.18,2.86l-1.49-.23-.57-.92h-1.6l2.18-.92,1.83-1.6-.69-2.75-2.06.23-1.26-.11-3.67.46,3.67-.92.92-.46.92.46,1.37-.57.11-2.29-.46-.8-1.15-.11,2.29-.57s-.34-1.95-.69-2.18c-.34-.23-2.06-.46-2.06-.46l-.92-.46h-2.86l.34-1.6,2.41-.11-1.95-.92-.57-.34s2.86-.34,3.09-.69c.23-.34.8-1.72.8-2.18s-.34-1.72-.34-1.72c0,0-.34-.57-.8-.57s-2.64.23-2.64.23l-1.26,1.15s.92-1.49,1.15-1.6c.23-.11,4.12-.57,4.35-1.15.23-.57.46-2.06.34-2.52-.11-.46-3.67-.57-3.67-.57,0,0,3.09.11,3.21-.23.11-.34-1.03-3.44-1.03-3.44Z"></path>
              <path class="st63" d="M647.63,166.82l-1.95,1.03-.11,1.03-.57,2.18s-1.03,2.41-2.29,2.86c-1.26.46-1.26-.11-1.26-.11l-.23,2.52.23,2.41-.23,1.6.75,6.25h0s-1.2-6.02-1.2-6.02c0,0-.11-6.65.57-7.68.69-1.03,3.55-2.18,3.55-2.18l.57-2.41-.69-2.64s-1.83-2.86-1.6-4.93c.21-1.85,1.25-5.84,2.45-7.04-.05.1-1.88,3.29-1.76,5.66.11,2.41.46,3.55.46,3.55l-.34.46.92,1.49s1.37-.34,2.18.69c.8,1.03.57,1.26.57,1.26Z"></path>
              <path class="st16" d="M646.83,212.42h4.7l-1.83-.69s-.69.34-.57-3.09c.11-3.44.8-6.42.8-6.42l-.23-2.75.11-6.65.8-1.95s-2.06.92-2.64,1.15c-.57.23-1.95-1.15-2.06-.69-.11.46,1.95,8.02,2.06,8.59.11.57.11,3.09.23,4.12.08.75.19,5.16-.23,7.33-.16.82-1.15,1.03-1.15,1.03Z"></path>
              <path class="st71" d="M648.78,201.53s-1.37-8.14-1.03-8.25l.34-.11.57-.34s-.23.57-.23.92.46,4.24.46,4.24c0,0,.57,2.98.57,3.32s-.34,2.06-.34,2.06l-.24,5.61-.22-6.19.11-1.26Z"></path>
              <path class="st16" d="M652.53,196.62s-.31,6.4-.54,7.66c-.16.91-.45,4.95-.59,7.15-.04-2.5-.12-7.38-.21-7.72-.11-.46-.92-.92-.92-1.26s1.37-.57,1.37-1.49v-5.04s.57-4.47.46-4.93c-.11-.46-1.03-2.86-1.37-3.21s-5.39-.34-5.39-.34l4.12-.46,1.84-.43c.02.21.69,1.97,1.33,3.88.69,2.06-.1,6.19-.1,6.19Z"></path>
              <polygon class="st16" points="643.88 215.51 645.46 215.28 645.91 212.99 650.73 213.33 653.13 213.33 654.69 214.59 654.69 215.51 643.88 215.51"></polygon>
              <path class="st15" d="M645.91,211.96s-1.03-7.68-.8-7.68,1.49-1.03,1.49-1.03l.8-1.03-.34,1.15-1.37,1.37v.34s1.72-.57,1.72-.34.11,3.9,0,4.93c-.11,1.03-1.49,2.29-1.49,2.29Z"></path>
            </g>
          </g>
          <g>
            <polygon class="st54" points="489.43 222.35 490.42 231.56 490.42 231.56 490.49 232.19 517.48 232.19 518.66 222.5 518.68 222.35 489.43 222.35"></polygon>
            <polygon class="st16" points="492.71 229.42 493.15 229.93 491.02 230.99 490.42 231.56 490.42 231.56 490.72 232.19 509.48 232.19 509.51 223.55 512.83 223.02 518.66 222.5 518.68 222.35 500.6 222.88 489.96 222.75 490.42 229.23 492.71 229.42"></polygon>
            <g>
              <path class="st55" d="M497.16,221.17v1.18h14.76v-2.95l-2.21-1.03s.89-8.12,1.03-9.59,1.18-3.84,1.33-4.57c.15-.74.74-6.49.74-6.49l-.59-9.59,1.92-2.66.07-.36h0s1.55-7.75,1.55-7.75c0,0,.15-8.56-.74-9.89-.89-1.33-4.57-2.8-4.57-2.8l-.74-3.1.89-3.39s2.36-3.69,2.07-6.35c-.27-2.39-1.6-7.52-3.16-9.06,0,0,0,0,0,0-.17-.18-.35-.3-.53-.38-1.77-.74-1.77-.59-1.77-.59l-2.36,1.92s-3.39,6.35-3.39,7.67,1.48,4.28,1.48,4.28v2.95c0,.59,1.92,4.43,1.92,4.43v1.92s-2.66,0-3.39.74-3.1,7.23-3.1,7.23v6.49c0,1.03,1.92,3.69,1.92,3.69l1.18,1.03s0,.01,0,.03c-.02.27-.21,2.09-1.03,4.54-.89,2.66-.15,8.26-.15,8.26,0,0,0,8.41.3,10.04.21,1.17.58,6.37.76,9.21h0c.07,1.12.12,1.86.12,1.86,0,0-1.18.15-1.92.74s-2.36,2.36-2.36,2.36Z"></path>
              <path class="st63" d="M505.28,144.28s-3.25,5.76-3.25,6.2.59,3.84.74,3.98.44.74.44.74l.44.74-.3,1.18-.15,1.48s1.33,2.8,1.48,3.1c.15.3.59.3.59.3h1.77l-1.77.74v2.36s-2.07.3-2.51.44c-.44.15-.74,0-1.18.74-.44.74-1.48,3.25-1.48,3.25l1.92.44h-2.21l-1.21,2.24.03,2.63s.3,4.87.3,5.02,2.8,3.69,2.8,3.69l1.92-.3.74-1.18h2.07l-2.8-1.18-2.36-2.07.89-3.54,2.66.3,1.62-.15,4.72.59-4.72-1.18-1.18-.59-1.18.59-1.77-.74-.15-2.95.59-1.03,1.48-.15-2.95-.74s.44-2.51.89-2.8c.44-.3,2.66-.59,2.66-.59l1.18-.59h3.69l-.44-2.07-3.1-.15,2.51-1.18.74-.44s-3.69-.44-3.98-.89c-.3-.44-1.03-2.21-1.03-2.8s.44-2.21.44-2.21c0,0,.44-.74,1.03-.74s3.39.3,3.39.3l1.62,1.48s-1.18-1.92-1.48-2.07c-.3-.15-5.31-.74-5.61-1.48-.3-.74-.59-2.66-.44-3.25.15-.59,4.72-.74,4.72-.74,0,0-3.98.15-4.13-.3-.15-.44,1.33-4.43,1.33-4.43Z"></path>
              <path class="st16" d="M506.9,159.63l2.51,1.33.15,1.33.74,2.8s1.33,3.1,2.95,3.69c1.62.59,1.62-.15,1.62-.15l.3,3.25-.3,3.1.3,2.07-.96,8.05h0s1.55-7.75,1.55-7.75c0,0,.15-8.56-.74-9.89-.89-1.33-4.57-2.8-4.57-2.8l-.74-3.1.89-3.39s2.36-3.69,2.07-6.35c-.27-2.39-1.6-7.52-3.16-9.06.07.12,2.42,4.24,2.27,7.29-.15,3.1-.59,4.57-.59,4.57l.44.59-1.18,1.92s-1.77-.44-2.8.89c-1.03,1.33-.74,1.62-.74,1.62Z"></path>
              <path class="st16" d="M507.93,218.37h-6.05l2.36-.89s.89.44.74-3.98c-.15-4.43-1.03-8.26-1.03-8.26l.3-3.54-.15-8.56-1.03-2.51s2.66,1.18,3.39,1.48c.74.3,2.51-1.48,2.66-.89s-2.51,10.33-2.66,11.07c-.15.74-.15,3.98-.3,5.31-.11.96-.25,6.64.3,9.44.21,1.06,1.48,1.33,1.48,1.33Z"></path>
              <path class="st71" d="M505.42,204.35s1.77-10.48,1.33-10.63l-.44-.15-.74-.44s.3.74.3,1.18-.59,5.46-.59,5.46c0,0-.74,3.84-.74,4.28s.44,2.66.44,2.66l.31,7.23.28-7.97-.15-1.62Z"></path>
              <path class="st63" d="M501,197.85s0,8.41.3,10.04c.21,1.17.58,6.37.76,9.21.05-3.21.16-9.51.27-9.94.15-.59,1.18-1.18,1.18-1.62s-1.77-.74-1.77-1.92v-6.49s-.74-5.76-.59-6.35c.15-.59,1.33-3.69,1.77-4.13.44-.44,6.94-.44,6.94-.44l-5.31-.59-2.36-.56c-.02.27-.21,2.09-1.03,4.54-.89,2.66-.15,8.26-.15,8.26Z"></path>
              <polygon class="st16" points="511.74 222.35 509.7 222.06 509.11 219.1 502.91 219.55 499.82 219.55 497.54 221.17 497.54 222.35 511.74 222.35"></polygon>
              <path class="st16" d="M509.11,217.78s1.33-9.89,1.03-9.89-1.92-1.33-1.92-1.33l-1.03-1.33.44,1.48,1.77,1.77v.44s-2.21-.74-2.21-.44-.15,5.02,0,6.35c.15,1.33,1.92,2.95,1.92,2.95Z"></path>
            </g>
          </g>
          <g>
            <polygon class="st56" points="564.76 215.31 565.53 222.43 565.53 222.43 565.58 222.92 586.46 222.92 587.38 215.43 587.39 215.31 564.76 215.31"></polygon>
            <polygon class="st16" points="567.3 220.78 567.64 221.17 565.99 221.99 565.53 222.43 565.53 222.43 565.75 222.92 580.27 222.92 580.29 216.23 582.86 215.82 587.38 215.43 587.39 215.31 573.4 215.72 565.17 215.62 565.53 220.63 567.3 220.78"></polygon>
            <g>
              <path class="st57" d="M570.74,214.39v.91h11.42v-2.28l-1.71-.8s.69-6.28.8-7.42c.11-1.14.91-2.97,1.03-3.54.11-.57.57-5.02.57-5.02l-.46-7.42,1.48-2.06.06-.28h0s1.2-6,1.2-6c0,0,.11-6.62-.57-7.65-.69-1.03-3.54-2.17-3.54-2.17l-.57-2.4.69-2.63s1.83-2.85,1.6-4.91c-.21-1.85-1.24-5.82-2.44-7.01,0,0,0,0,0,0-.13-.14-.27-.24-.41-.29-1.37-.57-1.37-.46-1.37-.46l-1.83,1.48s-2.63,4.91-2.63,5.94,1.14,3.31,1.14,3.31v2.28c0,.46,1.48,3.43,1.48,3.43v1.48s-2.06,0-2.63.57c-.57.57-2.4,5.6-2.4,5.6v5.02c0,.8,1.48,2.85,1.48,2.85l.91.8s0,0,0,.03c-.02.21-.16,1.62-.8,3.51-.69,2.06-.11,6.39-.11,6.39,0,0,0,6.51.23,7.76.16.9.45,4.93.59,7.12h0c.06.86.09,1.44.09,1.44,0,0-.91.11-1.48.57-.57.46-1.83,1.83-1.83,1.83Z"></path>
              <path class="st63" d="M577.02,154.9s-2.51,4.45-2.51,4.8.46,2.97.57,3.08.34.57.34.57l.34.57-.23.91-.11,1.14s1.03,2.17,1.14,2.4c.11.23.46.23.46.23h1.37l-1.37.57v1.83s-1.6.23-1.94.34c-.34.11-.57,0-.91.57-.34.57-1.14,2.51-1.14,2.51l1.48.34h-1.71l-.94,1.74.03,2.03s.23,3.77.23,3.88,2.17,2.85,2.17,2.85l1.48-.23.57-.91h1.6l-2.17-.91-1.83-1.6.69-2.74,2.06.23,1.26-.11,3.65.46-3.65-.91-.91-.46-.91.46-1.37-.57-.11-2.28.46-.8,1.14-.11-2.28-.57s.34-1.94.69-2.17c.34-.23,2.06-.46,2.06-.46l.91-.46h2.85l-.34-1.6-2.4-.11,1.94-.91.57-.34s-2.85-.34-3.08-.69c-.23-.34-.8-1.71-.8-2.17s.34-1.71.34-1.71c0,0,.34-.57.8-.57s2.63.23,2.63.23l1.26,1.14s-.91-1.48-1.14-1.6c-.23-.11-4.11-.57-4.34-1.14-.23-.57-.46-2.06-.34-2.51.11-.46,3.65-.57,3.65-.57,0,0-3.08.11-3.2-.23-.11-.34,1.03-3.43,1.03-3.43Z"></path>
              <path class="st16" d="M578.28,166.78l1.94,1.03.11,1.03.57,2.17s1.03,2.4,2.28,2.85,1.26-.11,1.26-.11l.23,2.51-.23,2.4.23,1.6-.74,6.23h0s1.2-6,1.2-6c0,0,.11-6.62-.57-7.65-.69-1.03-3.54-2.17-3.54-2.17l-.57-2.4.69-2.63s1.83-2.85,1.6-4.91c-.21-1.85-1.24-5.82-2.44-7.01.05.1,1.87,3.28,1.76,5.64-.11,2.4-.46,3.54-.46,3.54l.34.46-.91,1.48s-1.37-.34-2.17.69c-.8,1.03-.57,1.26-.57,1.26Z"></path>
              <path class="st16" d="M579.07,212.22h-4.68l1.83-.69s.69.34.57-3.08-.8-6.39-.8-6.39l.23-2.74-.11-6.62-.8-1.94s2.06.91,2.63,1.14c.57.23,1.94-1.14,2.06-.69.11.46-1.94,7.99-2.06,8.56-.11.57-.11,3.08-.23,4.11-.08.75-.19,5.14.23,7.31.16.82,1.14,1.03,1.14,1.03Z"></path>
              <path class="st71" d="M577.13,201.38s1.37-8.11,1.03-8.22l-.34-.11-.57-.34s.23.57.23.91-.46,4.22-.46,4.22c0,0-.57,2.97-.57,3.31s.34,2.06.34,2.06l.24,5.6.22-6.17-.11-1.26Z"></path>
              <path class="st63" d="M573.71,196.35s0,6.51.23,7.76c.16.9.45,4.93.59,7.12.04-2.49.12-7.35.21-7.69.11-.46.91-.91.91-1.26s-1.37-.57-1.37-1.48v-5.02s-.57-4.45-.46-4.91c.11-.46,1.03-2.85,1.37-3.2s5.37-.34,5.37-.34l-4.11-.46-1.83-.43c-.02.21-.16,1.62-.8,3.51-.69,2.06-.11,6.39-.11,6.39Z"></path>
              <polygon class="st16" points="582.02 215.31 580.45 215.08 579.99 212.8 575.19 213.14 572.79 213.14 571.03 214.39 571.03 215.31 582.02 215.31"></polygon>
              <path class="st16" d="M579.99,211.77s1.03-7.65.8-7.65-1.48-1.03-1.48-1.03l-.8-1.03.34,1.14,1.37,1.37v.34s-1.71-.57-1.71-.34-.11,3.88,0,4.91c.11,1.03,1.48,2.28,1.48,2.28Z"></path>
            </g>
          </g>
          <g>
            <polygon class="st58" points="579.14 232.46 539.19 231.8 538.99 231.79 541.65 218.89 545.3 218.89 549.57 111.64 549.57 111.64 549.86 104.47 549.86 104.47 550.42 90.31 556.94 83 564.12 89.91 571.96 218.36 576.08 218.5 579.14 232.46"></polygon>
            <polygon class="st16" points="556.94 83 560.93 89.91 565.58 218.23 549.09 218.89 569.57 219.69 571.7 232.46 579.14 232.46 575.29 219.29 570.9 219.03 564.12 89.91 556.94 83"></polygon>
            <polygon class="st24" points="557.75 97.49 559.22 191.2 554.68 191.1 552.68 191.1 554.81 95.37 557.73 95.37 557.75 97.49"></polygon>
            <polygon class="st24" points="557.74 97.5 557.74 97.68 555.97 97.68 555.74 191.2 552.68 191.1 554.81 95.37 557.73 95.37 557.74 97.5"></polygon>
            <polygon class="st64" points="559.06 191.1 553.48 191.1 557.34 191.5 560.66 191.5 557.73 95.37 557.47 102.41 559.06 191.1"></polygon>
            <polygon class="st63" points="560.93 89.91 552.28 89.91 551.62 90.45 550.82 90.71 549.57 111.64 550.42 90.31 556.94 83 560.93 89.91"></polygon>
            <path class="st16" d="M543.64,221.58s.53,1.28,2.26,1.07,1.2-1.49,1.2-1.49l.93.43.53,6.94h-1.86l.8-4.91s-.93,1.92-2.13,1.92-1.86-2.03-1.86-2.03l-.53,4.8-.4-.11,1.06-6.62Z"></path>
            <path class="st16" d="M550.29,221.8s.53,1.28,2.26,1.07,1.2-1.49,1.2-1.49l.93.43.53,6.94h-1.86l.8-4.91s-.93,1.92-2.13,1.92-1.86-2.03-1.86-2.03l-.53,4.8-.4-.11,1.06-6.62Z"></path>
            <path class="st16" d="M556.94,221.8s.53,1.28,2.26,1.07c1.73-.21,1.2-1.49,1.2-1.49l.93.43.4,6.94h-1.73l.8-4.91s-.93,1.92-2.13,1.92-1.86-2.03-1.86-2.03l-.53,4.8-.4-.11,1.06-6.62Z"></path>
            <path class="st16" d="M563.32,221.8s.53,1.28,2.26,1.07,1.2-1.49,1.2-1.49l.93.43.93,6.94h-2.26l.8-4.91s-.93,1.92-2.13,1.92-1.86-2.03-1.86-2.03l-.53,4.8-.4-.11,1.06-6.62Z"></path>
            <path class="st64" d="M548.03,175.81l-1.2,12.77.4,1.99,3.19.53h-3.32v28.06l-4.12.13-3.79,12.5h-.2s2.66-12.9,2.66-12.9h3.65l4.27-107.25h0s.29-7.17.29-7.17l.3,10.04.27,4.12-.8,1.46v2.79l3.06.27h-3.06v5.98l-.27,8.51.66.93.4,10.5.27,5.19s-2.26,4.92-2.26,5.05-.13,4.79-.13,4.79l-.27,11.7Z"></path>
          </g>
        </g>
        <g>
          <path class="st26" d="M685.69,264.24l63.04,1.76,22,1,100,4s-2-14-4-13-104-3-104-3l-77.04,9.24Z"></path>
          <g>
            <path class="st41" d="M883.17,268.97l-.27-.35-.2-.24-12.81-16.3-14.28,3.1-1.55-4.95-11.48,2.78s-.92-.58-2.46-1.58c0,0,0-.01-.04-.02-.03-.02-.06-.03-.1-.06-.09-.07-.19-.13-.3-.2-.05-.04-.11-.08-.17-.11-.11-.07-.23-.15-.34-.24-.04,0-.07-.03-.1-.06-.1-.06-.2-.13-.31-.19-.02-.02-.04-.03-.06-.05-.58-.38-1.22-.81-1.9-1.26-.02-.02-.06-.04-.09-.05-.13-.1-.27-.19-.42-.29-.19-.13-.39-.27-.59-.4-.13-.09-.26-.17-.39-.26-.05-.03-.1-.07-.15-.1-.1-.08-.21-.15-.32-.23-.32-.21-.64-.44-.97-.66-.11-.07-.22-.15-.32-.22-2.02-1.39-4.21-2.94-6.41-4.56-.75-.55-1.51-1.11-2.25-1.68-.48-.37-.96-.73-1.43-1.1h-5.7l1.92-.58,1.19-.36.62-.62c-.26-.21-.51-.42-.77-.63-.91-.76-1.8-1.51-2.63-2.25l-3.97-.46-50.09-5.78-3.08-8.48-.61-.68.03.62s-50.26-4.03-51.2-3.4c-.07.04-.23.19-.47.4h0c-.1.1-.22.2-.35.32-.12.12-.26.25-.42.4-.19.18-.4.38-.63.6-.12.12-.24.24-.38.37l-.04.03c-.09.1-.19.2-.3.3-.23.22-.47.45-.72.7-.25.24-.51.5-.78.76-2.15,2.11-4.8,4.72-7.05,6.96-.01.01-.03.02-.04.03-2.76,2.75-4.94,4.93-4.94,4.93h-.08c-1.1.03-15.09.5-20.8,2.95l-.99.5-.06.03c-.57.35-.98.73-1.19,1.15-.1.2-.15.41-.15.64,0,2.4,1.56,7.18,3.08,11.25.05.12.09.25.14.37.07.2.15.4.22.59.04.12.09.23.13.35.56,1.45,1.09,2.76,1.5,3.76.03.08.06.15.09.23l.08.19c.16.4.31.73.41.98.03.08.06.16.09.22.01.02.02.04.02.06.02.04.04.08.05.12.02.03.03.06.04.08s.02.04.02.05c.02.02.02.03.02.03l.82,4.94.11.64,14.24.66h.15l3.25.14,9.07.41,22.99,1.05,6.01.27,5.41.25,68.56,3.11s.06-.16.16-.32c.03-.03.06-.07.08-.1.31-.47.94-1.24,1.71-2.15l.06-.07c.34-.41.72-.84,1.11-1.3.26-.3.53-.61.8-.92.13-.15.26-.31.4-.46l.4.02h.03l5.38.24h.12s2.07.1,2.07.1l.66.03,10.78.5,15.65.71.89.12,1.8.25,32.97,4.6h.01l2.18.3-.37-.47Z"></path>
            <path class="st19" d="M672.85,249.39l.05.13,2.11,5.35s5.62-2.48,8.72-3.41c3.1-.93,31.34,6.2,31.34,6.2l8.07,3.41,9.18,3.46,73.97,3.36c0-.31,2.16-2.85,4.32-5.32l8,.37.66.03,10.78.49,15.65.71,37.85,5.27-.37-.47-13.28-16.88-14.27,3.1-1.55-4.96-11.48,2.79s-.93-.58-2.46-1.58c0,0-.02,0-.04-.02-2.9-1.89-7.93-5.24-12.94-8.93-4.14,1.26-11.34,3.48-13.72,4.34-3.41,1.24-24.82,0-24.82,0l-29.23-7.67-6.45-6.27-3.1-9.92-9.31,4.96-.62,15.5s-11.79.62-15.2.31c-3.41-.31-22.96-5.27-22.96-5.27l-8.72-2.6-16.58,4.94-3.56,8.6h0Z"></path>
            <path class="st19" d="M791.08,240.62s20.22-.29,30.76-.02c.3,0,.6.02.89.02.74.02,1.46.08,2.16.17-.48-.37-.96-.73-1.43-1.1h-5.69l1.92-.58,1.18-.35.63-.63c-.26-.21-.52-.42-.77-.63l-2.85.3-26.79,2.82Z"></path>
            <path class="st40" d="M744.85,238.14l11.48,5.58s8.38,2.48,11.48,4.03c3.1,1.55,54.6,9.92,54.6,9.92l12.1-2.79,8.07-.41,4.03-.21,7.45-4.03-11.48,2.79-19.86,3.1s-43.42-7.46-53.36-12.09c-12.82-5.96-14.3-7.36-14.09-7.67l-10.42,1.79Z"></path>
            <path class="st68" d="M755.27,236.35l.44-.07s-.36-.05-.44.07Z"></path>
            <polygon class="st17" points="737.72 266.34 737.72 257.66 747.02 249.29 744.54 238.14 756.05 245.73 768.43 250.22 814.04 257.66 806.28 267.89 737.72 266.34"></polygon>
            <polygon class="st1" points="868.64 253.63 883.53 269.44 845.68 264.17 810.62 262.62 830.79 261.07 849.72 261.38 868.64 253.63"></polygon>
            <path class="st43" d="M813.73,257.66l-7.13,1.86-68.57-1.55-10.86-4.65-28.54-4.96v-1.24s-8.56-2.04-16.35-4.41c-5.9-1.8-11.36-3.78-12.35-5.21.21-.42.62-.8,1.19-1.15l.06-.03.99-.5c5.71-2.45,19.7-2.92,20.8-2.95-.28.31-.53.61-.74.88h-.01c-.45.57-.73,1.03-.73,1.29,0,1.24,39.4,12.08,39.71,13.01s82.53,9.61,82.53,9.61Z"></path>
            <polygon class="st17" points="698.62 248.36 701.73 257.35 703.32 263.29 726.29 264.26 726.24 253.63 698.62 248.36"></polygon>
            <path class="st18" d="M669.77,238.14c0,4.65,5.89,18.28,5.89,18.28l.93,5.58,17.64.8-.26-7.93s-3.1-8.37-3.24-9.76c-.14-1.39,15.96-6.04,15.96-6.04l4.96-14.26-2.96-7.34c-1.63,1.48-6.73,6.52-10.67,10.43h0s-.02.02-.04.04c-2.76,2.74-4.94,4.92-4.94,4.92h-.07c-1.32.04-21.08.7-23.05,4.63-.1.2-.16.42-.16.64Z"></path>
            <polygon class="st45" points="883.16 268.97 851.89 264.17 810.62 262.62 806.28 267.89 791.08 266.03 785.18 266.65 776.5 262.93 770.6 264.17 767.5 265.95 676.6 261.38 668.22 259.52 659.84 261.38 659.84 262.93 657.36 262.93 657.36 261.38 654.26 261.38 650.53 262.93 806.59 268.2 809.38 264.17 851.22 264.3 883.16 268.97"></polygon>
          </g>
          <polygon class="st44" points="709.29 217.44 711.6 225.15 724.71 227.47 740.47 228.93 760.94 220.53 760.94 219.76 749.38 218.21 743.21 218.99 709.29 217.44"></polygon>
          <polygon class="st65" points="714.91 225.74 719.31 227.47 723.16 229.01 733.8 228.31 727.02 226.7 714.91 225.74"></polygon>
          <polygon class="st74" points="753.23 258.31 756.32 259.85 764.03 259.85 764.8 261.39 765.57 265.25 765.57 259.85 771.52 258.73 764.03 258.31 753.23 258.31"></polygon>
          <polygon class="st19" points="758.63 232.86 764.03 229.01 816.72 235.09 787.93 235.95 758.63 232.86"></polygon>
          <polygon class="st79" points="670.4 237.97 674.74 241 683.52 243.22 694.88 246.19 678.6 240.14 670.4 237.97"></polygon>
          <polygon class="st78" points="709.74 218 709.74 221 711.65 224.81 710.74 220 709.74 218"></polygon>
          <path class="st77" d="M706.88,219.19l-10.14,10.81-4.51,3.75h-.01s-1.48.25-8.48.25c-6.56,0-11.91,2.07-12.56,2.32l.99-.5c5.71-2.45,19.7-2.92,20.8-2.95h.08s2.18-2.18,4.94-4.93c.01-.01.03-.02.04-.03,2.25-2.24,4.9-4.85,7.05-6.96.27-.26.53-.52.78-.76.25-.25.49-.48.72-.7.11-.1.21-.2.3-.3Z"></path>
        </g>
        <g>
          <path class="st27" d="M307.77,242.46l86.03,1s-11-2-10-2,60-3,60-3h-11l2-1h16l-14.66-.78-19.34-2.22h39l-9-2s-35,0-35,1,21,3,20,4-72,0-72,0l-52.03,5Z"></path>
          <path class="st80" d="M302.8,242.41l30.66.02h.34s28.68.02,28.68.02h0s20.08.01,20.08.01c0,0,.33-4.42-1.17-5.22-1.5-.8-13.54-.32-13.54-.32,0,0-.06-2.78-1.32-2.6-1.06.15-9.91-.19-13.14.09-.62.05-1.03.13-1.14.24-.71.68-.05,1.81-.05,1.81l-7.71-.04h-.01s-1.38,0-1.38,0c0,0,.77-3.37-.08-3.73-.85-.35-7.4-.11-7.4-.11,0,0,1.03-1.16-.04-1.8-.05-.03-.13-.05-.25-.08h0c-.63-.12-2.2-.19-4.24-.22-6.03-.09-16.16.16-18.2.47h0c-.26.04-.39.08-.35.12.43.49,1.35,3.91,1.35,3.91l.1,4.75s-.49-.02-1.22-.04c-.01,0-.02,0-.03,0-1.43-.04-3.76-.09-5.11.02-.04,0-.07,0-.08,0-.32.03-.57.06-.75.11-1.26.34-3.99,2.6-3.99,2.6Z"></path>
          <path class="st13" d="M380.43,241.5c-.62.49-17.62.93-17.95.94h20.08s.33-4.41-1.17-5.21c-1.5-.8-13.54-.32-13.54-.32,0,0-.06-2.78-1.32-2.6-1.06.15-9.91-.19-13.14.09l.24.11s12.06.46,12.28.62c.21.16.46,1.79.46,1.79l-13.33-.16s27.09.8,27.09.97c0,.16.92,3.26.29,3.76Z"></path>
          <path class="st13" d="M317.93,236.24l-3.38.04,24.54.34,5.39-.21h-1.38s.77-3.38-.08-3.73c-.85-.35-7.4-.11-7.4-.11,0,0,1.03-1.16-.04-1.8-.05-.03-.13-.05-.25-.08h0s-4.24-.22-4.24-.22c-6.03-.09-16.16.16-18.2.47h0s-.35.12-.35.12c0,0,21.99-.11,22.21.21.22.32.03,1.64.04,1.8,0,.16-12.47.16-12.47.16l13.97.31s3.39.45,3.4.78-.38,1.81-.38,1.81l-9.51.12-.25-1.96-.17,1.97-11-.02-.02-.82-.41.82Z"></path>
          <path class="st13" d="M340.2,239.06s11.63.02,12.06.17c.43.16.05,2.13.05,2.45,0,.33-17.75.72-17.75.72l22.21-.03s-1.98-3.34-2.62-3.65c-.64-.32-13.95.34-13.95.34Z"></path>
          <path class="st14" d="M320.55,242.39s-.84-1.92-1.69-2.07-11.63-.54-11.32-.61c.31-.07,13.84-.08,14.49.41.64.48,2.36,1.77,2.36,1.77,0,0,.62-.66,1.25-.67.63,0,3.81-.05,4.02.11.21.16,1.08.97,1.08.97l.84-.5,1.91.14.31.5-13.25-.04Z"></path>
          <path class="st83" d="M441.8,235h23.25l4.37-.21,11.38-.54-4-1.25-13.25-.25-2.25-.75s-3-6-4.5-6h-.55c-2.71,0-12.26.06-12.95.75-.75.75-1.5,8.25-1.5,8.25Z"></path>
          <path class="st13" d="M442.28,235h22.77l4.37-.21-1.37-1.29-4.5-.75-2.25-.75s-3-6-4.5-6h-.55c1.22,2.03,3.1,5.48,2.05,6-1.5.75-13.5.75-13.5.75l15,.75.75.75-18.27.75Z"></path>
          <polygon class="st84" points="426.8 239 443.8 239 442.8 238 440.8 237 431.8 238 427.8 238 426.8 239"></polygon>
          <polygon class="st13" points="426.8 239 443.8 239 442.8 238 440.8 237 441.8 238 426.8 239"></polygon>
        </g>
        <path class="st70" d="M343.62,112.55c8.92.19,14.84,1.57,22.2,5.51,7.36,3.94,14.79,4.1,19.25,4.19,4.46.09,25.2,4.31,25.2,4.31l39.47,2.44-49.77-7.7s-8.79-6.5-10.3-5.26-11.87-1.51-16.28-4.13c-4.41-2.62-5.82-6.43-10.28-6.53-4.46-.09-20.76-2.96-23.74-3.02-2.97-.06-26.82,1.97-26.82,1.97l-40.09-3.36-81.49-15.58s32.55,8.25,34.01,9.55c1.46,1.29,11.74,7.82,11.74,7.82l35.48,10.84,31.12,5.7s-11.76-6.56-7.33-5.2,19.36-.86,22.3.46c2.95,1.32,4.46.09,4.46.09l20.87-2.09Z"></path>
        <path class="st70" d="M489.51,47.42s8.29,2.54,12.42,4.21c4.14,1.67,16.61,2.68,16.61,2.68l11.06,2.58,19.38,3.52s-16.59-4.28-17.96-5.1c-1.37-.82-5.5-3.29-12.4-5.81-6.9-2.51-15.25-1.05-15.25-1.05l-13.86-1.03Z"></path>
        <path class="st70" d="M484.25,50.34c-43.33-2.72-51.89-9.86-51.89-9.86l-12.03-7.2s-39.75-9.66-41.48-9.69,43.27,6.72,43.27,6.72c0,0,5.2.09,13.86,1.23,8.66,1.14,15.5,7.26,15.5,7.26l32.78,11.54Z"></path>
        <polygon class="st32" points="445.08 277.16 442.92 277.08 414.1 276.06 405.39 275.1 394.45 274.92 368.76 274.08 388.51 267.24 391.2 263.93 397.93 258.42 412.41 265.75 426.22 272.75 433.73 273.87 441.03 274.95 445.08 277.16"></polygon>
        <polygon class="st20" points="442.92 277.08 414.1 276.06 405.39 275.1 404.72 270.72 391.83 267.94 397.78 264.24 397.78 258.68 412.41 265.75 426.53 272.57 433.73 273.87 439.98 274.99 442.92 277.08"></polygon>
        <g>
          <polygon class="st3" points="349.81 276.55 355.08 277.77 364.74 277.93 361.48 276.98 357.72 276.36 349.81 276.55"></polygon>
          <polygon class="st30" points="360.32 275.69 360.34 277.12 354.21 277.22 349.82 276.57 355.04 274.34 355.14 274.36 360.32 275.69"></polygon>
          <polygon class="st20" points="360.32 275.69 360.34 277.12 355.18 277.2 355.14 274.36 360.32 275.69"></polygon>
        </g>
        <g>
          <polygon class="st3" points="354.8 279.84 356.56 280.67 359.77 280.83 358.68 280.18 357.43 279.75 354.8 279.84"></polygon>
          <polygon class="st28" points="358.29 279.32 358.3 280.27 356.26 280.3 354.8 279.85 356.53 278.39 356.56 278.41 358.29 279.32"></polygon>
          <polygon class="st20" points="358.29 279.32 358.3 280.27 356.59 280.3 356.56 278.41 358.29 279.32"></polygon>
        </g>
        <g>
          <polygon class="st3" points="470.79 276.29 473.44 277.55 478.28 277.79 476.64 276.82 474.75 276.16 470.79 276.29"></polygon>
          <polygon class="st31" points="476.05 275.51 476.07 276.95 473 276.99 470.8 276.31 473.39 274.11 473.44 274.14 476.05 275.51"></polygon>
          <polygon class="st20" points="476.05 275.51 476.07 276.95 473.49 276.99 473.44 274.14 476.05 275.51"></polygon>
        </g>
        <g>
          <polygon class="st3" points="478.8 274.11 481.44 274.71 486.28 274.79 484.65 274.32 482.76 274.01 478.8 274.11"></polygon>
          <polygon class="st73" points="484.07 273.68 484.08 274.39 481.01 274.44 478.81 274.11 481.42 273 481.47 273.02 484.07 273.68"></polygon>
          <polygon class="st20" points="484.07 273.68 484.08 274.39 481.5 274.43 481.47 273.02 484.07 273.68"></polygon>
        </g>
        <g>
          <polygon class="st3" points="327.92 277.1 335.74 279 350.74 278 344.46 277.07 338.95 275.54 327.92 277.1"></polygon>
          <polygon class="st72" points="342.36 273.09 342.92 277.64 334.34 278.68 327.94 277.15 334.46 269.42 334.6 269.48 342.36 273.09"></polygon>
          <polygon class="st20" points="342.36 273.09 342.92 277.64 335.7 278.52 334.6 269.48 342.36 273.09"></polygon>
        </g>
        <g>
          <path class="st75" d="M610.74,244c-2,0-7-1-9,0s-22,4-22,4l-73,1-16-1-10,3s-5.36,0-7.37.67c-.29.1-.51.21-.63.33-.23.23-.55.4-.94.53-.54.2-1.2.31-1.83.38-.91.09-1.78.09-2.23.09-.16,0-.55.03-1.1.07h-.02c-2.87.23-9.88.93-9.88.93h-53s-.1-.01-.28-.02h-.3c-2.87-.19-15.53-.98-16.42-.98-.19,0-.88.08-1.86.19-4.06.51-13.14,1.81-13.14,1.81l-27,2-2.17.11-15.06.74-63.77,3.15,5.93-7.9.07-.1s4.95.16,12.18.36c10.09.29,24.64.67,36.39.84,4.77.06,9.08.09,12.45.07,3.1-.02,5.4-.08,6.53-.2l.45-.07c5-1,14-1,14-1l28.01-.97.99-.03s4.48.06,11.3.14c14.81.16,40.65.4,55.5.26h.14c6.01-.06,10.19-.19,11.06-.4.67-.17,1.51-.34,2.46-.5,1.79-.31,3.95-.6,6.04-.85.04,0,.08-.01.11-.01,3.3-.38,6.38-.64,7.39-.64,2,0,12-3,12-3,0,0,29-2,44-2,8.97,0,19.64-.52,28.94-1,6.24-.31,11.86-.61,15.93-.72,10.13-.28,36.13-4.28,38.13-5.28.24-.12.32-.3.26-.52-.35-1.59-7.49-5.36-7.49-5.36,0,0,7.68.48,9.95.18,2.28-.3,3.28,1.7,13.28,4.7,3.03.91-17,7-19,7Z"></path>
          <path class="st2" d="M614.74,238l-2,1-8.66,2.23s-11.34,1.77-11.87,1.54c-.53-.24-7.02.51-7.02.51l-5.15-.04s-10.3.76-11.3.76h-9.06c6.24-.31,11.86-.61,15.93-.72,10.13-.28,36.13-4.28,38.13-5.28.24-.12.32-.3.26-.52l.74.52Z"></path>
          <path class="st5" d="M337.29,254.07l-6.55.93h-19l-26-1-4,1s-9.02-1.5-12.07-1.9l.07-.1s43.4,1.38,61.02,1.27c3.1-.02,5.4-.08,6.53-.2Z"></path>
          <path class="st2" d="M342.57,257.11l-1.83-.11-22.43-2.8c-11.75-.17-26.3-.55-36.39-.84l16.82,3.64h16l12.77.85,15.06-.74Z"></path>
          <path class="st2" d="M403.46,253.98h-.02c-3.74-.6-7.66-1.24-11.4-1.84-6.82-.08-11.3-.14-11.3-.14l-.99.03,5.13,1.16,18.58.79Z"></path>
          <path class="st2" d="M473.37,251.67c-.29.1-.51.21-.63.33-.23.23-.55.4-.94.53-.52.03-1.1.14-1.8.37-.01,0-.02.01-.03.01-.85.27-2.07.29-3.33.16h-.02c-1.76-.18-11.89-.42-18.94-.67,6.01-.06,10.19-.19,11.06-.4.67-.17,1.51-.34,2.46-.5,1.79-.31,3.95-.6,6.04-.85.04,0,.08-.01.11-.01,1.74.3,3.91.67,6.02,1.03Z"></path>
        </g>
      </g>
    </g>
  </g>

    </svg>

    <!-- Warm colour-grade wash to unify tones -->
    <rect x="185" y="14" width="310" height="374" fill="url(#warmWash)"></rect>

    <!-- Soft bottom fade for wordmark legibility (no hard box) -->
    <rect x="185" y="255" width="310" height="125" fill="url(#bottomFade)"></rect>

    <g fill="#FFECD4" transform="translate(303.045,318) scale(0.016602,-0.016602)">
      <path d="M431 90 534 66V0H40V66L142 90V1331L46 1355V1421H431Z" transform="translate(0,0)"></path>
      <path d="M705 82 637 47Q497 -25 385 -25Q125 -25 125 252V850L31 874V940H414V291Q414 207 449.5 160.0Q485 113 551 113Q627 113 703 147V850L617 874V940H992V90L1084 66V0H719Z" transform="translate(569,0)"></path>
      <path d="M31 875V940H533V875L428 848L565 637L746 850L652 875V940H972V875L889 854L625 544L923 86L1013 65V0H511V65L616 88L452 341L234 86L328 65V0H8V65L92 81L392 433L122 850Z" transform="translate(1708,0)"></path>
    </g>
    <g fill="#FFCB4A" transform="translate(352.401,318) scale(0.016602,-0.016602)">
      <path d="M523 568V100L695 73V0H48V73L207 100V1242L35 1268V1341H676Q972 1341 1118.0 1250.0Q1264 1159 1264 966Q1264 678 994 596L1352 100L1497 73V0H1063L689 568ZM952 964Q952 1114 890.0 1172.5Q828 1231 663 1231H523V678H668Q822 678 887.0 742.0Q952 806 952 964Z" transform="translate(0,0)"></path>
    </g>
  </g><polygon points="340,22 495,114 495,288 340,380 185,288 185,114" fill="none" stroke="#A53A43" stroke-width="11"></polygon><polygon points="340,22 495,114 495,288 340,380 185,288 185,114" fill="none" stroke="#FFCB4A" stroke-width="2.5"></polygon></svg>